/* XPM */
static char *result[] = {
/* columns rows colors chars-per-pixel */
"48 48 175 2 ",
"   c #7A2365",
".  c #782366",
"X  c #782367",
"o  c #7B2465",
"O  c #782467",
"+  c #782468",
"@  c #782568",
"#  c #792568",
"$  c #7B386F",
"%  c #7B527E",
"&  c #CB373F",
"*  c #CD373C",
"=  c #CE373C",
"-  c #CC373E",
";  c #CF3839",
":  c #D73A33",
">  c #D23837",
",  c #D33937",
"<  c #D73934",
"1  c #D73A34",
"2  c #D43936",
"3  c #D83A33",
"4  c #D83934",
"5  c #D83A34",
"6  c #D03838",
"7  c #D13838",
"8  c #D23838",
"9  c #D1383A",
"0  c #D1383B",
"q  c #D2383A",
"w  c #8E285F",
"e  c #9F2C57",
"r  c #91295D",
"t  c #91295E",
"y  c #9C2B5A",
"u  c #9D2C58",
"i  c #B5314C",
"p  c #B4314D",
"a  c #B5314E",
"s  c #B9324B",
"d  c #BA324B",
"f  c #BE3348",
"g  c #BE3349",
"h  c #BF3349",
"j  c #BC334A",
"k  c #BF334A",
"l  c #BE3449",
"z  c #BF3449",
"x  c #BF344A",
"c  c #A22D56",
"v  c #A22D57",
"b  c #A52D56",
"n  c #AA2E53",
"m  c #AB2F53",
"M  c #AC2F52",
"N  c #A82E55",
"B  c #A12C58",
"V  c #A02C59",
"C  c #B13051",
"Z  c #B03052",
"A  c #822661",
"S  c #842662",
"D  c #862662",
"F  c #872662",
"G  c #8B2962",
"H  c #8B2A62",
"J  c #8D2860",
"K  c #8E2860",
"L  c #8F2961",
"P  c #892F65",
"I  c #8D3265",
"U  c #C23543",
"Y  c #C73641",
"T  c #C23544",
"R  c #C23445",
"E  c #C33545",
"W  c #C43545",
"Q  c #854472",
"!  c #83547D",
"~  c #6E6991",
"^  c #835B81",
"/  c #845C82",
"(  c #846388",
")  c #80648A",
"_  c #85678A",
"`  c #867393",
"'  c #877695",
"]  c #887694",
"[  c #8D7695",
"{  c #867897",
"}  c #877997",
"|  c #827E9E",
" . c #8A7C9A",
".. c #8B7D9B",
"X. c #8E819D",
"o. c #8F8AA5",
"O. c #8E8BA5",
"+. c #8F8BA6",
"@. c #8F8CA7",
"#. c #9388A4",
"$. c #998DA5",
"%. c #908DA9",
"&. c #918DA9",
"*. c #918EA8",
"=. c #918EAA",
"-. c #928FAA",
";. c #9A94AD",
":. c #9A97AF",
">. c #9A98B0",
",. c #9C99B1",
"<. c #A4A2B6",
"1. c #A8A7B9",
"2. c #A9A7B9",
"3. c #AAA6B8",
"4. c #AEACBE",
"5. c #B4B2C2",
"6. c #B7B5C5",
"7. c #B8B7C5",
"8. c #B8B6C6",
"9. c #BAB8C6",
"0. c #BAB9C7",
"q. c #BBBAC7",
"w. c #BCBAC8",
"e. c #BDBCC8",
"r. c #BDBCC9",
"t. c #BEBCC9",
"y. c #BEBDC9",
"u. c #BEBDCA",
"i. c #BFBECB",
"p. c #C1C0CD",
"a. c #C6C5D0",
"s. c #C7C5D1",
"d. c #C8C7D2",
"f. c #C9C8D2",
"g. c #CBCAD5",
"h. c #CFCED9",
"j. c #CFCEDA",
"k. c #D0CEDA",
"l. c #D1D0DA",
"z. c #DAD9E1",
"x. c #DADAE1",
"c. c #DEDDE3",
"v. c #DEDDE4",
"b. c #E1E0E6",
"n. c #E1E1E6",
"m. c #E2E1E6",
"M. c #E2E2E7",
"N. c #E3E2E8",
"B. c #E3E3E8",
"V. c #E5E4E9",
"C. c #E8E7EC",
"Z. c #E9E9ED",
"A. c #EBEAEE",
"S. c #EDEDF0",
"D. c #EEEDF1",
"F. c #EEEEF1",
"G. c #EFEEF1",
"H. c #EFEFF2",
"J. c #F0EFF2",
"K. c #F1F1F3",
"L. c #F2F2F5",
"P. c #F4F4F6",
"I. c #F5F5F7",
"U. c #F6F6F8",
"Y. c #F7F7F8",
"T. c #F8F8FA",
"R. c #F9F8FA",
"E. c #FBFBFC",
"W. c #FDFDFD",
"Q. c #FDFDFE",
"!. c #FEFEFE",
"~. c #FEFEFF",
"^. c #FFFEFF",
"/. c white",
"(. c None",
/* pixels */
"(.(.(.(.(.(.(.(.(.(.(.(.(.(.(.(.(.(.(.(.(.(.(.(.(.(.(.(.(.(.(.(.(.(.(.(.(.(.(.(.(.(.(.(.(.(.(.(.",
"(.(.(.(.(.(.(.(.(.(.(.(.(.(.(.(.(.(.(.(.(.(.(.(.(.(.(.(.(.(.(.(.(.(.(.(.(.(.(.(.(.(.(.(.(.(.(.(.",
"(.(.(.(.(.(.(.(.(.(.(.(.(.(.(.(.(.(.(.(.(.(.(.(.(.(.(.(.(.(.(.(.(.(.(.(.(.(.(.(.(.(.(.(.(.(.(.(.",
"(.(.(.(.(.(.(.(.(.(.(.(.(.(.(.(.(.(.(.(.(.(.(.(.(.(.(.(.(.(.(.(.(.(.(.(.(.(.(.(.(.(.(.(.(.(.(.(.",
"(.(.(.(.(.(.(.(.(.(.(.(.(.(.(.(.(.(.(.(.(.(.(.(.(.(.(.(.(.(.(.(.(.(.(.(.(.(.(.(.(.(.(.(.(.(.(.(.",
"(.(.(.(.(.(.(.(.(.(.(.(.(.(.(.(.(.(.(.(.(.(.(.(.(.(.(.(.(.(.(.(.(.(.(.(.(.(.(.(.(.(.(.(.(.(.(.(.",
"(.(.(.(.(.(.(.(.(.(.(.(.(.(.(.(.(.(.(.(.(.(.(.(.(.(.(.(.(.(.(.(.(.(.(.(.(.(.(.(.(.(.(.(.(.(.(.(.",
"(.(.(.(.(.(.(.(.(.(.(.(.(.(.(.(.(.(.(.(.(.(.(.(.(.(.(.(.(.(.(.(.(.(.(.(.(.(.(.(.(.(.(.(.(.(.(.(.",
"(.(.(.(.(.(.(.(.(.(.(.(.(.(.(.(.(.(.(.(.(.(.(.(.(.(.(.(.(.(.(.(.(.(.(.(.(.(.(.(.(.(.(.(.(.(.(.(.",
"(.(.(.(.(.(.(.(.(.(.(.(.(.(.(.(.(.(.(.(.(.(.(.(.(.(.(.(.(.(.(.(.(.(.(.(.(.(.(.(.(.(.(.(.(.(.(.(.",
"(.(.(.(.(.(.(.(.(.(.(.(.(.(.(.(.(.(.(.(.(.(.(.(.(.(.(.(.(.(.(.(.(.(.(.(.(.(.(.(.(.(.(.(.(.(.(.(.",
"(.(.(.(.(.(.(.(.(.(.(.(.(.(.(.(.(.(.(.(.(.(.(.(.(.(.(.(.(.(.(.(.(.(.(.(.(.(.(.(.(.(.(.(.(.(.(.(.",
"(.(.(.(.(.(.(.(.(.(.(.(.(.(.(.(.(.(.(.(.(.(.(.(.(.(.(.(.(.(.(.(.(.(.(.(.(.(.(.(.(.(.(.(.(.(.(.(.",
"(.(.(.(.(.(.(.(.(.(.(.(.(.(.(.(.(.(.(.(.(.(.(.(.(.(.(.(.(.(.(.(.(.(.(.(.(.(.(.(.(.(.(.(.(.(.(.(.",
"(.(.(.5 < 8 8 8 8 8 8 8 8 8 8 8 8 8 2 4 (.(.(.(.(.(.3 4 , 8 8 8 8 8 8 8 8 8 8 8 8 > 5 4 (.(.(.(.",
"(.5 a ^ >.q.q.q.q.q.q.q.q.q.q.q.q.q.4.` B 1 (.(.(.Y P +.6.q.q.q.q.q.w.q.q.q.q.q.q.7.+.H = (.(.(.",
"5 r i.Q././././././././././././././././.l.I : (.f #.L././././././././././././././././.S.] = (.(.",
"a i./././././././././././././././.!.!././.p.p 9  .E.!././././.!.!././././.!././.!././.!.D.G : (.",
"/ W./././././././././././././././././././.R.S b c./././././.!./././././././././././.!././.*.: (.",
",././././././././.!./././.!././././././././.O   ~././././././././././.!././././.!./.!././.q.6 (.",
"r./././././.D.r.r.r.r.r.r.r.e.r.V./././././.@ . /././././.!.a.e.r.r.r.r.r.r.r.g./././././.r.; (.",
"r./././././.r.M h g z z g l h h % /././././.+ . /././././.m.K g h z l g z g g w B././././.r.; (.",
"2.N.N.N.N.N.1.U u . . . . . . . 3./././././.O . N.N.N.N.N.d.V E . . . . . . . ) P.!./././.r.; (.",
"V V V V V V V * A /./././././././././././.U.D Z V V V V V V h j h././././././././././././.o.1 (.",
"(.(.(.(.(.(.(.1 A /././././.!./././././.Y.;.R 5 5 5 5 5 5 5 5 j k././././././././././.^.s.y 5 (.",
"(.(.(.(.(.(.(.5 A /./././././././././.!.v.} & 5 5 5 5 5 5 5 5 j j./././.!././././././.F.<.C (.(.",
"5 5 5 5 5 5 5 5 A /./././././././././././.J.K 5 5 5 5 5 5 5 5 j k././././././././././././.{ 5 (.",
"~ -.-.-.-.-.~ T A n.b.n.n.n.n.n.T./././././.+ X -.-.-.-.-.| V j 8.n.n.n.n.n.n.H./././././.9.6 (.",
"r./././././.r.T i c c c c c c v $./././././.@ . /././././.n.V & c c c c c c c $ K././././.r.; (.",
"r./././././.r.m z x k z h k h k [ /././././.# . /././././.M.K x h h k x k h z D A././././.r.; (.",
"e.!././././.I.u.r.t.t.t.t.t.r.y.F./././././.@ X /./././././.f.t.t.t.t.t.r.t.t.z./././././.r.; (.",
":././././././././././././.!././././././././.O o !./././././././././././.!././././././././.0.7 (.",
"! E./././././././.!./././././././././././.Y.F N x././././././././././././././././.!.!././.o.5 (.",
"s 6./././././././././././././././././././.t.d q ' R././././././././././././././././././.Z.K 5 (.",
"5 e 5.R././././././././././././././././.d.L 5 (.W ..G././././././././././././././././.C.( 0 (.(.",
"(.5 j Q O.&.=.=.=.=.=.=.=.=.=.=.=.=.@._ n 5 (.(.(.- J X.%.=.=.=.=.=.=.=.=.=.=.=.=.%.X.t 0 (.(.(.",
"(.(.(.5 5 5 5 5 5 5 5 5 5 5 5 5 5 5 5 5 (.(.(.(.(.(.5 5 5 5 5 5 5 5 5 5 5 5 5 5 5 5 5 5 (.(.(.(.",
"(.(.(.(.(.(.(.(.(.(.(.(.(.(.(.(.(.(.(.(.(.(.(.(.(.(.(.(.(.(.(.(.(.(.(.(.(.(.(.(.(.(.(.(.(.(.(.(.",
"(.(.(.(.(.(.(.(.(.(.(.(.(.(.(.(.(.(.(.(.(.(.(.(.(.(.(.(.(.(.(.(.(.(.(.(.(.(.(.(.(.(.(.(.(.(.(.(.",
"(.(.(.(.(.(.(.(.(.(.(.(.(.(.(.(.(.(.(.(.(.(.(.(.(.(.(.(.(.(.(.(.(.(.(.(.(.(.(.(.(.(.(.(.(.(.(.(.",
"(.(.(.(.(.(.(.(.(.(.(.(.(.(.(.(.(.(.(.(.(.(.(.(.(.(.(.(.(.(.(.(.(.(.(.(.(.(.(.(.(.(.(.(.(.(.(.(.",
"(.(.(.(.(.(.(.(.(.(.(.(.(.(.(.(.(.(.(.(.(.(.(.(.(.(.(.(.(.(.(.(.(.(.(.(.(.(.(.(.(.(.(.(.(.(.(.(.",
"(.(.(.(.(.(.(.(.(.(.(.(.(.(.(.(.(.(.(.(.(.(.(.(.(.(.(.(.(.(.(.(.(.(.(.(.(.(.(.(.(.(.(.(.(.(.(.(.",
"(.(.(.(.(.(.(.(.(.(.(.(.(.(.(.(.(.(.(.(.(.(.(.(.(.(.(.(.(.(.(.(.(.(.(.(.(.(.(.(.(.(.(.(.(.(.(.(.",
"(.(.(.(.(.(.(.(.(.(.(.(.(.(.(.(.(.(.(.(.(.(.(.(.(.(.(.(.(.(.(.(.(.(.(.(.(.(.(.(.(.(.(.(.(.(.(.(.",
"(.(.(.(.(.(.(.(.(.(.(.(.(.(.(.(.(.(.(.(.(.(.(.(.(.(.(.(.(.(.(.(.(.(.(.(.(.(.(.(.(.(.(.(.(.(.(.(.",
"(.(.(.(.(.(.(.(.(.(.(.(.(.(.(.(.(.(.(.(.(.(.(.(.(.(.(.(.(.(.(.(.(.(.(.(.(.(.(.(.(.(.(.(.(.(.(.(.",
"(.(.(.(.(.(.(.(.(.(.(.(.(.(.(.(.(.(.(.(.(.(.(.(.(.(.(.(.(.(.(.(.(.(.(.(.(.(.(.(.(.(.(.(.(.(.(.(."
};
