/* XPM */
static char *result[] = {
/* columns rows colors chars-per-pixel */
"48 48 54 1 ",
"  c #53555C",
". c #56585F",
"X c #585A5F",
"o c #575A60",
"O c #5A5C62",
"+ c #615F64",
"@ c #5E6166",
"# c #5F6368",
"$ c #626266",
"% c #636569",
"& c #6A6669",
"* c #66696C",
"= c #6B6B6E",
"- c #716C6E",
"; c #6D6E70",
": c #746E70",
"> c #6F7072",
", c #727273",
"< c #7E7676",
"1 c #757578",
"2 c #7A7679",
"3 c #777879",
"4 c #7E7E7F",
"5 c #837B7B",
"6 c #8B807F",
"7 c #837F82",
"8 c #838182",
"9 c #8D8381",
"0 c #878488",
"q c #8E8C8D",
"w c #938887",
"e c #938C8C",
"r c #988E8D",
"t c #9A908F",
"y c #938E91",
"u c #959294",
"i c #9B9493",
"p c #9A9699",
"a c #9D999B",
"s c #A09695",
"d c #A39997",
"f c #A49C9B",
"g c #A89F9E",
"h c #A9A09F",
"j c #A39EA1",
"k c #A6A1A2",
"l c #ADA5A4",
"z c #ADA7AA",
"x c #AEA9AA",
"c c #B0A7A7",
"v c #B0A8A7",
"b c #B2ABAC",
"n c #B5AEB0",
"m c #B7B1B2",
/* pixels */
"44444448444**z4484444483%nlllhvcvvhhvh<X>4444448",
"48444444844*@p444448444*@ncllcvhvhvvlh5X+3448444",
"44648448444%.4444444444*@nllllllvvhvlh5X#3644444",
"44444444444*O4444844844*@bllllllhvvvlh<X#3444444",
"4444444444>oO4364444444*@bllllllvhvvhh<O#3844444",
"444444343=O O3444444444*Ohffllhlhhhhhh< O3444443",
"3,**>#@@O    .OO@@>%==1O    9s5t6ww66<: O,3#;@O@",
"8*# 300800000077884.*$$$$$     X       .o 880000",
"p3*4zbbbbcbbcbccvvtX==,,,;&&XXO%X$+OO .O@Oxapaaa",
"44*ymlllcllcllclll6 X*,,,,,=X*=,=,>==X==%.q44444",
"43@ublclllllcllclld X=,,,,,*X=,>*=*,+=,,*.348444",
"43O rgllcllcllllll6 X=,,,,:*X=,,,,,,,,,,*.xz4484",
"73O*,wllhcllllllll6 X=,,,,>*X=,,,,,,,,,>@ h44444",
"43Ouclclhcllllllll6 X*>,,,=#X=,,,,,,,,,%. 344444",
"4;O8slslclllldgghh6 X%****%X %==,===**#O  38443>",
"$o @&2&2<<22<&,:-,& .XXXXX.  .XXX@X...    %%%%@o",
"xa3uklklqX OO      @%#yhlklkjkjhse&O3lkkz0k33>Ou",
"484848883XO@##@@$##%,%amvvllllllcs-O488444844,Oj",
"444444843X=,,,,,,,,,>#avhlvlllvllk2@444444444>ok",
"44448444,X=,,,>,,,,,=Oavvlhvllbllf,O,444444441@p",
"44444444,X=,,,,,,,,,=Xavhvvllvvhcf<O#443>34443#,",
"448444443X=,>,,,,,,,=Xavvvhlvhvvcj<o3447*;444,O1",
"44444443%X=>,,,,,,,,%O=dhviyvhhvld:O*444* k48>O3",
"*3>,,*4#@X*%@@@#+@@=@X XhiX6th66rt=O##+O. %3##O,",
"3,>O,444443,##%*@=@X XXX       ,<1,2111;.@1>%=;@",
"jku*xmmxbmkk444444, X=,$@#++@ 8bbbbbnbbd&1jaqup3",
"443#kq44484444444,$X=,,;,,,,;Xbvvcllllls=*464484",
"443Ojq444448444843$X,,,,,,,,*.bvvvllllls- 344444",
"44,Ojq44844484844>@O,,;,,,,,>Xbvccllllch< 444444",
"44,o34444444444444%O,,,,,>>,*Xbhlllllcls- 344444",
"443o3444333444444=@ #,,,,,,,*Xblclcclcld: 444483",
"43*o343>OO.,33,3,%@O=$,-==;=O hhgfhfddff2 34333%",
"*oOo**OO   oOOOOOOOX%O+@XX@   88345<,::-$ =*OOOO",
"aauaaau4q>#qaqqaidiaii, #ippa4,;          uppppp",
"qqqquqq88>Okvlxxvvvvvh6$*qqqu444333111;403qqqyqq",
"4444444443oxllllllvlhi6$X4444444444443@qp5444444",
"444444443=Xklvllllllls6$.;444444444443@qp4484444",
"84844843*O.kllllllllld6$.3444444444483@8q4444848",
"444444843*.dllvlllllls6$.3444434444643@;44844444",
"44844444*@Xdlllllllvl66$.>3,3>,3,44483@*44>>4484",
"43******@@Xavhsdfier66,..*,O@@+@*4,3=<X-843#**=*",
"OX....  .oX##@@@@OOO++   XX.... .O.OOXX+O@@.....",
",,,,,,@3jpxx%@@X @###@@@Xqxxvvh@  $hvbvvbnnbhcl;",
",,>>>,@3j444====O4*;===;;444444, =svvhllllllvvt%",
">,,=,,O3j4444444#k8448444444444X.qvlllllllllllt&",
",,,=,,@,j8444443@l8444444444444@@qvlvllvllllllt&",
",,*=,,@3j4844444#k8848444448444@@eblllllllllllt&",
",,==,,=3j444444,Ol4444844444444@O0lllvllllllllt$"
};
