/* XPM */
static char *result[] = {
/* columns rows colors chars-per-pixel */
"48 48 214 2 ",
"   c #05060A",
".  c #07080D",
"X  c #090A0E",
"o  c #020305",
"O  c #180D08",
"+  c #1C120C",
"@  c #0B0D13",
"#  c #120F12",
"$  c #0F1016",
"%  c #0F1219",
"&  c #131014",
"*  c #12151C",
"=  c #16181F",
"-  c #1C1818",
";  c #22140C",
":  c #3A1B0F",
">  c #2B1D14",
",  c #241C19",
"<  c #251913",
"1  c #391017",
"2  c #2D2016",
"3  c #2B231C",
"4  c #34261B",
"5  c #3B2519",
"6  c #141720",
"7  c #161A23",
"8  c #1A1C25",
"9  c #1A1E29",
"0  c #171D2A",
"q  c #301D24",
"w  c #1D212C",
"e  c #1F2127",
"r  c #1F2430",
"t  c #22242D",
"y  c #2A2A2F",
"u  c #292628",
"i  c #332A23",
"p  c #3A2D24",
"a  c #382825",
"s  c #3D3029",
"d  c #232632",
"f  c #252935",
"g  c #292B36",
"h  c #272C38",
"j  c #2A2D39",
"k  c #322B36",
"l  c #372D37",
"z  c #2D313C",
"x  c #32343E",
"c  c #3A3739",
"v  c #4C1A1A",
"b  c #442215",
"n  c #49291B",
"m  c #532D1C",
"M  c #44352A",
"N  c #5B3C2D",
"B  c #573428",
"V  c #453A31",
"C  c #4B3D33",
"Z  c #413E3E",
"A  c #52342C",
"S  c #662625",
"D  c #762324",
"F  c #64392B",
"G  c #643B32",
"H  c #4D4237",
"J  c #52453C",
"K  c #58483C",
"L  c #63463A",
"P  c #6B4A3C",
"I  c #664537",
"U  c #724A3C",
"Y  c #76482E",
"T  c #2E3441",
"R  c #323642",
"E  c #353943",
"W  c #3A3C44",
"Q  c #383D4A",
"!  c #3E414A",
"~  c #3D4554",
"^  c #3A5041",
"/  c #43454D",
"(  c #44464A",
")  c #584B45",
"_  c #5C544A",
"`  c #4B4D53",
"'  c #444B59",
"]  c #515359",
"[  c #54575A",
"{  c #495554",
"}  c #6D4D47",
"|  c #764242",
" . c #69564A",
".. c #7D5242",
"X. c #77594A",
"o. c #655751",
"O. c #795D54",
"+. c #796657",
"@. c #7E735C",
"#. c #4D5567",
"$. c #5B5D62",
"%. c #535965",
"&. c #5E6065",
"*. c #656669",
"=. c #6B6D72",
"-. c #606873",
";. c #6F7073",
":. c #757578",
">. c #812323",
",. c #894A2D",
"<. c #A26038",
"1. c #895852",
"2. c #955B54",
"3. c #835748",
"4. c #8B6454",
"5. c #86685A",
"6. c #94695A",
"7. c #906755",
"8. c #9C715E",
"9. c #936447",
"0. c #AA6F42",
"q. c #986B61",
"w. c #8C7367",
"e. c #9C7463",
"r. c #9B7A69",
"t. c #987873",
"y. c #A37E6B",
"u. c #A67666",
"i. c #A87C73",
"p. c #AD726A",
"a. c #E95646",
"s. c #FB5946",
"d. c #F7634E",
"f. c #E26856",
"g. c #E56956",
"h. c #F96550",
"j. c #CF7E77",
"k. c #6DAD7B",
"l. c #68B077",
"z. c #A5834E",
"x. c #9BA65E",
"c. c #9E8579",
"v. c #AE836E",
"b. c #B3846E",
"n. c #A79569",
"m. c #B68976",
"M. c #B0956F",
"N. c #B7BC6F",
"B. c #B3AF6E",
"V. c #EC9E57",
"C. c #C18B78",
"Z. c #C7977C",
"A. c #D6987E",
"S. c #F88E71",
"D. c #C8B67A",
"F. c #D8AA74",
"G. c #E3A674",
"H. c #BEC171",
"J. c #D5C87B",
"K. c #E1CA7E",
"L. c #7A7E85",
"P. c #72AE80",
"I. c #8A8A8D",
"U. c #838488",
"Y. c #8F9094",
"T. c #959699",
"R. c #99989A",
"E. c #918B89",
"W. c #BB9484",
"Q. c #AA9991",
"!. c #9ABB8F",
"~. c #86AC8B",
"^. c #B6A497",
"/. c #9E9FA1",
"(. c #A2A3A5",
"). c #B7B7B8",
"_. c #ACAEB1",
"`. c #C19482",
"'. c #C49D8B",
"]. c #CC9E89",
"[. c #C79885",
"{. c #D39B89",
"}. c #EA9488",
"|. c #EE9186",
" X c #CCA18A",
".X c #D5A48E",
"XX c #C7A798",
"oX c #DCA693",
"OX c #DAAC95",
"+X c #D7B19D",
"@X c #E5B49C",
"#X c #C7B4AB",
"$X c #DCB7A6",
"%X c #C7BAB5",
"&X c #C3AFA9",
"*X c #EABDA4",
"=X c #E7B7A5",
"-X c #ECAAA1",
";X c #90CF97",
":X c #9BD7A4",
">X c #A4CEA9",
",X c #D9D583",
"<X c #E8D88A",
"1X c #E7CE84",
"2X c #DAC0B3",
"3X c #EEC3AA",
"4X c #E8C5B3",
"5X c #F5CBB3",
"6X c #F1C4B3",
"7X c #F7D1BB",
"8X c #F9D2BA",
"9X c #F3C6AC",
"0X c #C3C4C4",
"qX c None",
/* pixels */
"qXqXqXqXqXqXqXqXqXqXqXqXqXqXqXqXqXqXqXqXqXqXqXqXqXqXqXqXqXqXqXqXqXqXqXqXqXqXqXqXqXqXqXqXqXqXqXqX",
"qXqXqXqXqXqXqXqXqXqXqXqXqXqXqXqXqXqXqXqXqXqXqXqXqXqXqXqXqXqXqXqXqXqXqXqXqXqXqXqXqXqXqXqXqXqXqXqX",
"qXqXqXqXqXqXqXqXqXqXqXqXqXqXqXqXqXqXqXqXqXqXs 4 M qXqXqXqXqXqXqXqXqXqXqXqXqXqXqXqXqXqXqXqXqXqXqX",
"qXqXqXqXqXqXqXqXqXqXqXqXqXqXqXqXqXqXqXqXV M 2 2 p K C 3 qXqXqXqXqXqXqXqXqXqXqXqXqXqXqXqXqXqXqXqX",
"qXqXqXqXqXqXqXqXqXqXqXqXqXqXqXqXqXqXM 2 4 < 4 p H K H 3 l qXqXqXqXqXqXqXqXqXqXqXqXqXqXqXqXqXqXqX",
"qXqXqXqXqXqXqXqXqXqXqXqXqXqXqXqXqXJ 2 ; > 5 5 H H ) J 3 3 c qXqXqXqXqXqXqXqXqXqXqXqXqXqXqXqXqXqX",
"qXqXqXqXqXqXqXqXqXqXqXqXqXqXqXqXqXC > + < 2 p K H s 3 + - u u qXqXqXqXqXqXqXqXqXqXqXqXqXqXqXqXqX",
"qXqXqXqXqXqXqXqXqXqXqXqXqXqXqXqXqXp + + < 4 V V H s 3 + - 3 i qXqXqXqXqXqXqXqXqXqXqXqXqXqXqXqXqX",
"qXqXqXqXqXqXqXqXqXqXqXqXqXqXqXqXM 2 O O 2 4 4 H V 3 + < 2 4 s c qXqXqXqXqXqXqXqXqXqXqXqXqXqXqXqX",
"qXqXqXqXqXqXqXqXqXqXqXqXqXqXqXqXs 2 > ; + ; p s O + 5 P 4.@.X.) qXqXqXqXqXqXqXqXqXqXqXqXqXqXqXqX",
"qXqXqXqXqXqXqXqXqXqXqXqXqXqXqXqXs 4 M n 5 : n L c. X+X3X=Xy.J _ qXqXqXqXqXqXqXqXqXqXqXqXqXqXqXqX",
"qXqXqXqXqXqXqXqXqXqXqXqXqXqXqXqX .H L P 7.v. X3X5X7X8X5X*XM.K H qXqXqXqXqXqXqXqXqXqXqXqXqXqXqXqX",
"qXqXqXqXqXqXqXqXqXqXqXqXqXqXqXqXw.o.5.v. XOX3X9X3X7X7X5X*XXXw.K qXqXqXqXqXqXqXqXqXqXqXqXqXqXqXqX",
"qXqXqXqXqXqXqXqXqXqXqXqXqXqXqXqXc.Q.^.r. X+X3X3X3X5X4X4X$X$X&X+.qXqXqXqXqXqXqXqXqXqXqXqXqXqXqXqX",
"qXqXqXqXqXqXqXqXqXqXqXqXqXqXqXF +.%XE.N B A e.]. Xy.I P 7.c.#Xr.v.qXqXqXqXqXqXqXqXqXqXqXqXqXqXqX",
"qXqXqXqXqXqXqXqXqXqXqXqXqXqXqXB X.2XU I  .L m v.@X8.4.+.w.v.2X X{.qXqXqXqXqXqXqXqXqXqXqXqXqXqXqX",
"qXqXqXqXqXqXqXqXqXqXqXqXqXqXqXF A #Xe.e.W.`.4.p.=X{.'.'.$X=X$X^.p.qXqXqXqXqXqXqXqXqXqXqXqXqXqXqX",
"qXqXqXqXqXqXqXqXqXqXqXqXqXqXqXS A &Xe.[.oXOX7.8.=X{.*X4X*X=X$X=X{.qXqXqXqXqXqXqXqXqXqXqXqXqXqXqX",
"qXqXqXqXqXqXqXqXqXqXqXqXqXqXqXqXG t.4.C.oXoX2.i.*X.X=X3X-X{.&X-X].qXqXqXqXqXqXqXqXqXqXqXqXqXqXqX",
"qXqXqXqXqXqXqXqXqXqXqXqXqXqXqXqXqXw.O.u.{.{.U N 2.q.*X-XoXW.XXOXqXqXqXqXqXqXqXqXqXqXqXqXqXqXqXqX",
"qXqXqXqXqXqXqXqXqXqXqXqXqXqXqXqXqXqXX.X.i.C...L 6.`.OX@X.X'.^.qXqXqXqXqXqXqXqXqXqXqXqXqXqXqXqXqX",
"qXqXqXqXqXqXqXqXqXqXqXqXqXqXqXqXqXqX5.} 9.6.6.i.m.m.[..X].'.XXqXqXqXqXqXqXqXqXqXqXqXqXqXqXqXqXqX",
"qXqXqXqXqXqXqXqXqXqXqXqXqXqXqXqXqXqX5.L I 7.U 1.p.q.b.Z.m.W.qXqXqXqXqXqXqXqXqXqXqXqXqXqXqXqXqXqX",
"qXqXqXqXqXqXqXqXqXqXqXqXqXqXqXqXqXqX+.P G U ..,.2.p.C.m.M.t.qXqXqXqXqXqXqXqXqXqXqXqXqXqXqXqXqXqX",
"qXqXqXqXqXqXqXqXqXqXqXqXqXqXqXqXqXqX} } N U 8.[.@X@XZ.m.6.c.qXqXqXqXqXqXqXqXqXqXqXqXqXqXqXqXqXqX",
"qXqXqXqXqXqXqXqXqXqXqXqXqXqXqXqXqXqXP m A m I 4.8.u.4. .r. XqXqXqXqXqXqXqXqXqXqXqXqXqXqXqXqXqXqX",
"qXqXqXqXqXqXqXqXqXqXqXqXqXqXqXqXqXqX} B n b : : : b N u.@XW.u qXqXqXqXqXqXqXqXqXqXqXqXqXqXqXqXqX",
"qXqXqXqXqXqXqXqXqXqXqXqXqXqXqXqXqXe a N n n n b I 7.v..XW.) e qXqXqXqXqXqXqXqXqXqXqXqXqXqXqXqXqX",
"qXqXqXqXqXqXqXqXqXqXqXqXqXqXqX% = e X # + ; a G y.e.w.o.y = 9 % 9 7 qXqXqXqXqXqXqXqXqXqXqXqXqXqX",
"qXqXqXqXqXqXqXqXqXqXqXqXqX* o   . X X $ * % < 5 5 u y t t = 7 % 7 % * j qXqXqXqXqXqXqXqXqXqXqXqX",
"qXqXqXqXqXqXqXqXqXqXR 9 * .   . $   X $ * - G <.,.A e e * * % w w f e 7 7 7 qXqXqXqXqXqXqXqXqXqX",
"qXqXqXqXqXqXqXqXqXj $ . . . . @ $ X @ = * % a Y ,.G * & = 8 * d r w 8 0 e 9 9 d qXqXqXqXqXqXqXqX",
"qXqXqXqXqXqXqXd * X X u @ @ @ $ % %   * 7 8 ..0.0.G } d t 7 f j z j j j E *.d e e f qXqXqXqXqXqX",
"qXqXqXqXqXqXd ` =.Z ( y * @ @ * w e @ % 7 e | | 2.O.| r f z x x x z z z ! (.L.] / d h qXqXqXqXqX",
"qXqXqXqXqXQ @ ;.;.$.(.9 * = w z j e 7 $ & # v v 1 w d h T E W c E W x R E R E _.` j T #.qXqXqXqX",
"qXqXqXqX#.h % $ 7 9 ( ^ ~.~.k.P.l.{ w w e l a.a.D d h T c M.F.F.J.D.n.o.R E R ] ` T z ' qXqXqXqX",
"qXqXqXqX~ 0 0 * 0 0 9 P.:X;X>X!./.{ f f f V g.s.>.d h h J 1XV.x.x.H.,X1Xn.[ R z j T R Q T.qXqXqX",
"qXqXqX~ w 8 9 * 0 9 9 ^.OXA.A.}.-X} d h f k g.s.>.g f T R o.Z.K.<XJ.H.B.N.D.R T h r T j -.qXqXqX",
"qXqXqX*.0 6 0 0 * w 8 i.|.|.|.j.O.T d T f k f.d.>.g f k x k R Z o.+.x.B.B.@.E j h r h h j P.qXqX",
"qXqXY.z 0 * 6 0 * 9 w r J p.t.k r T f f f k f.h.D j d j R ` ` z ! c Q c R Q R h h h h h f ~ qXqX",
"qXqXR w 0 6 * w 7 9 t 8 7 t t j j x f h j k f.h.D f f j ] ).0XI.T.T.Y.I./ W R h f f f T d #.qXqX",
"qXqX_ % % 0 * r 0 e g ( *.=.:.R.R.&.h j j k f.d.D f f h ! :.U.U.Y./.T.I.` =.z f h 0 g r T I.qXqX",
"qXqX4.e * * @ w * 7 c :.R.R.R.;.Q j h j R k f.d.S f f h j j T R R ! W ! ! / T f d d j 6 f =.(.qX",
"qXG.L 7 w % X $ $ $ 7 d c ( ` ` $.*.] T j l f.d.S f h j j z R / &.` $./ z d e d 0 0 r 7 d h ' qX",
"qXc e = w 0 o $   $ ] *.:.] ! x R T j j g g 1.2.v f f T z z z $.I.z U.[ h f 9 = @ w e d r j Q qX",
"qXK w e 7 8 o *   $ x t t t d d d j j j T T k f 0 d f f j h z $.(.T.).` h d e   % w h 9 9 j M.qX",
"qXz.w w $ e @ =   X * 8 e t t d j T h T j k x j 8 d f j z h z / _.=.)./ f e 9   * f d 7 e c V.qX",
"qXqXqXqXqXqXqXqXqXqXqXqXqXqXqXqXqXqXqXqXqXqXqXqXqXqXqXqXqXqXqXqXqXqXqXqXqXqXqXqXqXqXqXqXqXqXqXqX"
};
