/* XPM */
static char *result[] = {
/* columns rows colors chars-per-pixel */
"48 48 163 2 ",
"   c #000000",
".  c #000B00",
"X  c #0A0F05",
"o  c #0C0C0C",
"O  c #001500",
"+  c #0F1203",
"@  c #001B01",
"#  c #161C05",
"$  c #191E05",
"%  c #151A0B",
"&  c #131313",
"*  c #1C1C1C",
"=  c #002501",
"-  c #002A01",
";  c #1E2307",
":  c #16230C",
">  c #003502",
",  c #003C02",
"<  c #13380B",
"1  c #222608",
"2  c #252B0A",
"3  c #232323",
"4  c #282728",
"5  c #2C2C2C",
"6  c #302F2F",
"7  c #323132",
"8  c #393536",
"9  c #3A3738",
"0  c #3D3B3B",
"q  c #423D3E",
"w  c #004203",
"e  c #004A04",
"r  c #005405",
"t  c #005B05",
"y  c #1D5A11",
"u  c #006407",
"i  c #006907",
"p  c #006708",
"a  c #006C08",
"s  c #0A690C",
"d  c #007409",
"f  c #007B0B",
"g  c #217810",
"h  c #2A7E16",
"j  c #247215",
"k  c #3F3F40",
"l  c #463F41",
"z  c #454343",
"x  c #4B4545",
"c  c #4E4648",
"v  c #4D4A4A",
"b  c #52474A",
"n  c #534B4D",
"m  c #584D4F",
"M  c #534F51",
"N  c #594F51",
"B  c #555454",
"V  c #5D5355",
"C  c #5C5B5B",
"Z  c #615557",
"A  c #625658",
"S  c #63595B",
"D  c #695B5D",
"F  c #6D5F61",
"G  c #656565",
"H  c #6B6365",
"J  c #6C6B6B",
"K  c #716F6F",
"L  c #706F70",
"P  c #747373",
"I  c #7D7B7C",
"U  c #00840C",
"Y  c #008C0D",
"T  c #00950F",
"R  c #009B10",
"E  c #139D14",
"W  c #298D15",
"Q  c #2F871F",
"!  c #2F8E1B",
"~  c #288715",
"^  c #368618",
"/  c #259316",
"(  c #2E9217",
")  c #2D991F",
"_  c #359F10",
"`  c #389F10",
"'  c #369519",
"]  c #359B1F",
"[  c #00A412",
"{  c #00AC13",
"}  c #0EA214",
"|  c #1CA111",
" . c #00B315",
".. c #00BC16",
"X. c #1FB41A",
"o. c #22A111",
"O. c #2DA010",
"+. c #2FA018",
"@. c #2AAD1C",
"#. c #31A010",
"$. c #33A31A",
"%. c #31AA1A",
"&. c #39AD1D",
"*. c #2FB11D",
"=. c #36B21D",
"-. c #3C8722",
";. c #309421",
":. c #38B323",
">. c #489420",
",. c #419925",
"<. c #469B28",
"1. c #44A427",
"2. c #47A128",
"3. c #4CA82B",
"4. c #52AB2C",
"5. c #40B120",
"6. c #49B12B",
"7. c #56B02E",
"8. c #58B62C",
"9. c #51BB2F",
"0. c #00C117",
"q. c #00C618",
"w. c #0EC018",
"e. c #00CB19",
"r. c #00D41A",
"t. c #09D51C",
"y. c #00DB1C",
"u. c #09DE1D",
"i. c #10D51A",
"p. c #18D51E",
"a. c #21D81B",
"s. c #00E51E",
"d. c #0CE01E",
"f. c #00ED1F",
"g. c #18E51F",
"h. c #00F01F",
"j. c #2CEC1F",
"k. c #37C924",
"l. c #3CC824",
"z. c #2BD421",
"x. c #3DD126",
"c. c #33DD25",
"v. c #3ADD22",
"b. c #00F420",
"n. c #00FA21",
"m. c #30E822",
"M. c #25F921",
"N. c #2AF323",
"B. c #43C426",
"V. c #4CC226",
"C. c #48CB27",
"Z. c #44CB22",
"A. c #53C026",
"S. c #49D228",
"D. c #4DDC2C",
"F. c #828182",
"G. c #8C8B8C",
"H. c #949494",
"J. c #9A999A",
"K. c #A09EA0",
"L. c #A2A1A2",
"P. c #AEADAE",
"I. c None",
/* pixels */
"I.I.I.I.I.I.I.I.I.I.I.I.I.I.I.I.I.I.I.I.I.I.I.I.I.I.I.I.I.I.I.I.I.I.I.I.I.I.I.I.I.I.I.I.I.I.I.I.",
"I.I.I.I.I.I.I.I.I.I.I.I.I.I.I.I.I.I.I.I.                I.I.I.I.I.I.I.I.I.I.I.I.I.I.I.I.I.I.I.I.",
"I.I.I.I.I.I.I.I.I.I.I.I.I.I.I.I.                                I.I.I.I.I.I.I.I.I.I.I.I.I.I.I.I.",
"I.I.I.I.I.I.I.I.I.I.I.I.I.I.                                        I.I.I.I.I.I.I.I.I.I.I.I.I.I.",
"I.I.I.I.I.I.I.I.I.I.I.I.    X y | o.` #.#.` #.#.O.o.o.o.O.O.o.[ T p     I.I.I.I.I.I.I.I.I.I.I.I.",
"I.I.I.I.I.I.I.I.I.I.        % ^ j.v.9.V.V.A.V.C.C.B.B.B.C.9.Z.v.z.Y       I.I.I.I.I.I.I.I.I.I.I.",
"I.I.I.I.I.I.I.I.I.          : ;.M.c.3.2.4.7.4.,.9.4.2.6.-.1.1.=.k.U           I.I.I.I.I.I.I.I.I.",
"I.I.I.I.I.I.I.I.      , f U < ) N.z.:.@.l.S.Z./ D.8.;.k.W =.%./ z.Y r T r       I.I.I.I.I.I.I.I.",
"I.I.I.I.I.I.I.    . w R y.r.s j :.+.! W _ %.$.g 5.>.h &.^ ( ' ~ @.f T s...d       I.I.I.I.I.I.I.",
"I.I.I.I.I.I.      r  .s.n.q.t + 2 ; # # ; $ 2 # 2 2 $ 2 2 ; 1 1 ; > Y s.n.r.U @     I.I.I.I.I.I.",
"I.I.I.I.I.      e  .b.f...a                                         , T y.b.y.U     I.I.I.I.I.I.",
"I.I.I.I.      w R f.f.{ e                                             > f e.b.r.d     I.I.I.I.I.",
"I.I.I.I.    - Y s.b. .e                                                 = f y.n.e.w     I.I.I.I.",
"I.I.I.    . a r.b.e.t                 o * * 3 3 3 3 * & o                 , R s.f.[ @   I.I.I.I.",
"I.I.I.    w [ n.y.f               o * 3 4 6 6 6 7 6 5 4 * *                 e  .n.y.f     I.I.I.",
"I.I.      a y.h.[ =             o 3 4 5 7 l x c z c q 5 7 4 3 o             . a r.b...    I.I.I.",
"I.I.    w [ b.r.r             & 3 5 8 x V A A V b V V n q 5 5 3 o             - T b.s.a     I.I.",
"I.I.    a r.b. .            o 3 7 9 x n S M b v v n B S b q 8 5 3               a r.h. .    I.I.",
"I.      U b.s.d           o * 6 8 m V z z M P B M v x C x V b 7 5 *             , [ n.r.@   I.I.",
"I.    , [ n.r.=           & 5 7 c S N 0 7 G L.C C I.z G G B S x 7 4 o             U h.s.d     I.",
"I.    t 0.b...          o * 5 q Z V x P P v L z v J z J I x S S 6 4 *             a r.f.R     I.",
"I.    i y.h.[           o 3 6 l m c B H.J.7 k 7 7 7 0 P I n c M 0 5 3             t q.b...    I.",
"I.    d s.h.T           & 5 8 b m 9 z B G 7 6 4 4 7 7 k C B M v N 7 5             r 0.n.r.    I.",
"I.    d s.s.p           & 5 q A V 6 I.7 7 7 3 o & 3 7 7 z P L V Z 7 4 o           e  .n.e.    I.",
"I.    d s.s.            & 7 q D N 6 I.I.7 6 *     * 7 7 I.I.I S V 6 4 &           w [ n.e.    I.",
"I.    d s.f.p           & 5 q A V 7 I.7 7 7 3 o & 3 7 7 k J G V A 7 4 o           e  .n.e.    I.",
"I.    f s.f.T           & 5 9 b N 0 C B G 7 6 4 4 7 7 7 z B z b M 6 4 o           r ..n.r.    I.",
"I.    i y.h.[           & 3 7 z V v P P.H.k B 0 7 7 k L G.S v V z 6 3             u e.b...    I.",
"I.    t 0.b...          o * 6 q S Z J L.L B G.L v G 0 G F.B S D 9 5 *             a y.f.R     I.",
"I.    , [ n.r.=           & 5 8 m F D H x F.L.I G I.I x B V D c 6 4 X             f h.s.d     I.",
"I.      f b.s.d           o 3 5 0 V S k B P J B C I P b x S Z 7 4 *             , [ n.r.O   I.I.",
"I.I.    p r.b. .            + 3 6 0 n n D V n v x V A D n x 9 5 3 o             d y.b.{     I.I.",
"I.I.    , [ b.y.t             & 4 7 8 x V D S V m D D Z x 6 5 3 &             , [ b.s.a     I.I.",
"I.I.      a y.b. .=             & 3 5 5 8 c b c x n q 6 6 5 * o               i y.b...    I.I.I.",
"I.I.I.    w [ b.s.U               o 3 4 4 6 7 6 6 6 5 4 3 &             . - = i r.y.f     I.I.I.",
"I.I.I.    . t e.b...                  o * * 3 3 3 3 * & o               e Y f , f Y @   I.I.I.I.",
"I.I.I.I.    = f e.T                                                     a 0.{           I.I.I.I.",
"I.I.I.I.      , a , p U R U -                                         = U u.0.        I.I.I.I.I.",
"I.I.I.I.I.        , T r.s.0.T r                                       p w.p.[       I.I.I.I.I.I.",
"I.I.I.I.I.I.      - f e.y. .q.0.f                             O -   w [ d.E r       I.I.I.I.I.I.",
"I.I.I.I.I.I.I.      = a [  .y.y.[ U Y >                 = r T [ d   e R  .e       I.I.I.I.I.I.I.",
"I.I.I.I.I.I.I.I.      . w Y  .T [ i.a.Y U U a U U U f p [ ..s.e.a   @ w e       I.I.I.I.I.I.I.I.",
"I.I.I.I.I.I.I.I.I.            r { g.m.t.r.[  .e.e.y...d q.b.b.[               I.I.I.I.I.I.I.I.I.",
"I.I.I.I.I.I.I.I.I.I.          > f } X.t.0.[ e.r.s.h...f e.y.0.f           I.I.I.I.I.I.I.I.I.I.I.",
"I.I.I.I.I.I.I.I.I.I.I.I.          O e f u f T R { { d d [ Y r           I.I.I.I.I.I.I.I.I.I.I.I.",
"I.I.I.I.I.I.I.I.I.I.I.I.I.I.              O @ @ @ @   . .           I.I.I.I.I.I.I.I.I.I.I.I.I.I.",
"I.I.I.I.I.I.I.I.I.I.I.I.I.I.I.I.                                I.I.I.I.I.I.I.I.I.I.I.I.I.I.I.I.",
"I.I.I.I.I.I.I.I.I.I.I.I.I.I.I.I.I.I.I.I.                I.I.I.I.I.I.I.I.I.I.I.I.I.I.I.I.I.I.I.I."
};
