/* XPM */
static char *result[] = {
/* columns rows colors chars-per-pixel */
"48 48 221 2 ",
"   c #031D1A",
".  c #231414",
"X  c #281516",
"o  c #241A1B",
"O  c #2C1B1C",
"+  c #2A1718",
"@  c #301C1D",
"#  c #0D231F",
"$  c #12201C",
"%  c #1C2D26",
"&  c #0A322D",
"*  c #1F332A",
"=  c #093934",
"-  c #083732",
";  c #062A26",
":  c #282825",
">  c #332324",
",  c #392525",
"<  c #3C2B2C",
"1  c #362828",
"2  c #29312B",
"3  c #3C2E31",
"4  c #3E3233",
"5  c #323A36",
"6  c #2F3B31",
"7  c #412C2D",
"8  c #422F31",
"9  c #433334",
"0  c #4B3536",
"q  c #4C3C3C",
"w  c #513C3D",
"e  c #5B3D3D",
"r  c #533736",
"t  c #0C433C",
"y  c #1B443C",
"u  c #14453E",
"i  c #25463E",
"p  c #3B4138",
"a  c #513E40",
"s  c #0D4C45",
"d  c #0D4A44",
"f  c #1D4B44",
"g  c #174B45",
"h  c #0D544C",
"j  c #15554C",
"k  c #1C544D",
"l  c #1B544B",
"z  c #0E5952",
"x  c #0F5651",
"c  c #125C55",
"v  c #1B5B53",
"b  c #135E58",
"n  c #1C5855",
"m  c #234B44",
"M  c #2A4C46",
"N  c #3A4A43",
"B  c #24544C",
"V  c #2D524A",
"C  c #2A594F",
"Z  c #2A5549",
"A  c #35554D",
"S  c #3C574E",
"D  c #235E56",
"F  c #2B5C54",
"G  c #2D5350",
"H  c #335C54",
"J  c #3C5B59",
"K  c #365B57",
"L  c #13655D",
"P  c #1B635B",
"I  c #15685F",
"U  c #22635C",
"Y  c #2B655D",
"T  c #2F6057",
"R  c #386359",
"E  c #146C63",
"W  c #1A6D65",
"Q  c #176F68",
"!  c #166660",
"~  c #167067",
"^  c #167169",
"/  c #1A736A",
"(  c #1D756B",
")  c #2C6A62",
"_  c #216C65",
"`  c #376963",
"'  c #287167",
"]  c #23746B",
"[  c #2B736B",
"{  c #35746C",
"}  c #3D746D",
"|  c #37786A",
" . c #2C7A72",
".. c #397C76",
"X. c #4A4A47",
"o. c #544344",
"O. c #5B4343",
"+. c #5D4A4B",
"@. c #564749",
"#. c #4A5D54",
"$. c #4D5654",
"%. c #565955",
"&. c #50554C",
"*. c #634442",
"=. c #634D4E",
"-. c #6E4C49",
";. c #7A524F",
":. c #634F51",
">. c #665354",
",. c #6B5353",
"<. c #6E5A5A",
"1. c #645E57",
"2. c #735352",
"3. c #705957",
"4. c #755B5B",
"5. c #7D5D5B",
"6. c #7C5654",
"7. c #704D4B",
"8. c #45624D",
"9. c #44675B",
"0. c #56675D",
"q. c #7B635E",
"w. c #456B63",
"e. c #486863",
"r. c #536C63",
"t. c #596E67",
"y. c #4C736C",
"u. c #437F6E",
"i. c #487269",
"p. c #53746C",
"a. c #57766B",
"s. c #437D75",
"d. c #4B7B74",
"f. c #427E78",
"g. c #4B7873",
"h. c #557A74",
"j. c #5D7B74",
"k. c #567B77",
"l. c #646C65",
"z. c #7B6262",
"x. c #746765",
"c. c #65756C",
"v. c #6B756C",
"b. c #627C75",
"n. c #677C76",
"m. c #71776F",
"M. c #825D5A",
"N. c #8B5E5A",
"B. c #845955",
"V. c #935F5D",
"C. c #8C615E",
"Z. c #93625E",
"A. c #836564",
"S. c #8C6562",
"D. c #856B6B",
"F. c #8B6D6D",
"G. c #876866",
"H. c #946561",
"J. c #946A66",
"K. c #9B6B66",
"L. c #966D69",
"P. c #9D6E69",
"I. c #996761",
"U. c #8C756F",
"Y. c #94706E",
"T. c #9C726D",
"R. c #8A6F70",
"E. c #876F70",
"W. c #8C7172",
"Q. c #857F77",
"!. c #9D7673",
"~. c #9E7876",
"^. c #957874",
"/. c #A26E67",
"(. c #A5726C",
"). c #AC736C",
"_. c #A67975",
"`. c #AC7A74",
"'. c #A67D78",
"]. c #A87671",
"[. c #B47C75",
"{. c #B97E76",
"}. c #B0766F",
"|. c #4D817B",
" X c #4F8670",
".X c #5B8B72",
"XX c #53827D",
"oX c #5B827D",
"OX c #538474",
"+X c #6A837D",
"@X c #65847D",
"#X c #74847D",
"$X c #778077",
"%X c #878379",
"&X c #AE807B",
"*X c #B6827B",
"=X c #BB847C",
"-X c #5D8782",
";X c #5B8A85",
":X c #578A85",
">X c #4F8782",
",X c #648A84",
"<X c #6C8983",
"1X c #648D88",
"2X c #688A85",
"3X c #728A84",
"4X c #738E89",
"5X c #788E87",
"6X c #7B928C",
"7X c #75948E",
"8X c #7F9690",
"9X c #878E87",
"0X c #999C94",
"qX c #84958F",
"wX c #BF8880",
"eX c #BF9088",
"rX c #C18C84",
"tX c #C4948B",
"yX c #C6988F",
"uX c #C79C93",
"iX c None",
/* pixels */
"iXiXiXiXiXiXiXiXiXiXiXiXiXiXiXiXiXiXiXiXiXiXiXiXiXiXiXiXiXiXiXiXiXiXiXiXiXiXiXiXiXiXiXiXiXiXiXiX",
"iXiXiXiXiXiXh h D j.U c c L E E E I I W ( ( ( ^ ^ ^ / ( Q d   t L E E E ! v w.t.t.8.$.p iXiXiXiX",
"iXiXiXiXiXiXh j 9.p.T D P L E E W { { [ [  . . . .Q ^ ( E x   = z E E ~ L c 9.r.r.#.X.6 iXiXiXiX",
"iXiXiXiXiXm s v h.b.j.h.p.U L ~ W s.XXd.f.>X..>Xf.] Q ^ E ! ; = z E ~ ~ E x T 9.0.8.N * iXiXiXiX",
"iXiXiXiXiXiXk v p.#X6X5X2X` L ! W ..1X1X1X1X;X;X>X ./ ~ Q W y & z E E ^ L z C c.m.t.X.% iXiXiXiX",
"iXiXiXiXiXiXC C R @X#X3X+Xw.L ! E ..;X1X2X1X1X;X;X|.] ~ / u.R & h E E ~ L h F 5X9Xx.&.: iXiXiXiX",
"iXiXiXiXiXiXZ B T b.n.n.@Xp.D ! E ] f.k.k.-X-X-XXXd.] W | .X{ u t E E ^ E z F 0X0X%X1.2 iXiXiXiX",
"iXiXiXiXiXiXiXf 9.r.t.b.#X@Xw.P ^ Q ] s.2X6X6X3X@XXX[ ]  X X' b = L E ~ L h R 0X0X%X1.: iXiXiXiX",
"iXiXiXiXiXiXiXm a.8.H 0.b.j.9.k E E / XXqXqX6X4X6X6XXX[ .X| / W d s I E I x C #X$Xl.X.: iXiXiXiX",
"iXiXiXiXiXiXiXiXv.8.i M A S V g L E _ d.2X2Xj.h.@X<Xd.) .X ./ { U s L E L x l R R V * iXiXiXiXiX",
"iXiXiXiXiXiXiXiXiX8.Z i y l B k P ] ] [ { { ) ) | u.[ W u.u.[ ,Xd.P h L L z h h j u # iXiXiXiXiX",
"iXiXiXiXiXiXiXiXiXiXH i m F g.g.k.|...' W / E ! I W W W ' u. .7X2X` v h h s h h s ; $ iXiXiXiXiX",
"iXiXiXiXiXiXiXiXiXiXiXiXV Y g.k.XX;X:X' L Q Q E L ! L ) Y | | ,X4Xh.` k u t t u - # iXiXiXiXiXiX",
"iXiXiXiXiXiXiXiXiXiXiXiXiXU R ` i.f.f.[ b ! Q Q L b ) h.p.y.OXg.<Xc.b.0.g d y i * iXiXiXiXiXiXiX",
"iXiXiXiXiXiXiXiXiXiXiXiXiXiXB m %.v.n.p.) n E ^ L L i.2X3X<X<Xp.@Xa.+Xc.V f M iXiXiXiXiXiXiXiXiX",
"iXiXiXiXiXiXiXiXiXiXiXiXiXiXiX2 z.^.W.x.l.J b Q ! ! g.4X3X@Xj.w.i.a.c.l.$.iXiXiXiXiXiXiXiXiXiXiX",
"iXiXiXiXiXiXiXiXiXiXiXiXiXiXiX4 U.^.q.3.<.$.G ! ! b ` oXp.e.G G R 8.0.iXiXiXiXiXiXiXiXiXiXiXiXiX",
"iXiXiXiXiXiXiXiXiXiXiXiXiXiXiXiXE.4.a w o.a N #._ P n ` K B g m V iXiXiXiXiXiXiXiXiXiXiXiXiXiXiX",
"iXiXiXiXiXiXiXiXiXiXiXiXiXiXiXiX3.@.9 < 3 9 4 X.J U x n k f y iXiXiXiXiXiXiXiXiXiXiXiXiXiXiXiXiX",
"iXiXiXiXiXiXiXiXiXiXiXiXiXiXiX>.,.,.O.a 9 3 3 q @.K n f m m iXiXiXiXiXiXiXiXiXiXiXiXiXiXiXiXiXiX",
"iXiXiXiXiXiXiXiXiXiXiXiXiXiXiXA.G.S.M.6.+.a o.a @.%.G f iXiXiXiXiXiXiXiXiXiXiXiXiXiXiXiXiXiXiXiX",
"iXiXiXiXiXiXiXiXiXiXiXiXiXiXz.~.T.S.J.J.A.>.>.:.+.>.$.i iXiXiXiXiXiXiXiXiXiXiXiXiXiXiXiXiXiXiXiX",
"iXiXiXiXiXiXiXiXiXiXiXiXiX3.G.'.T.C.I.P.L.A.<.<.>.>.%.5 iXiXiXiXiXiXiXiXiXiXiXiXiXiXiXiXiXiXiXiX",
"iXiXiXiXiXiXiXiXiXiXiXiXiXA.A.T.K.I.V.H.K.J.5.z.z.>.:.1 iXiXiXiXiXiXiXiXiXiXiXiXiXiXiXiXiXiXiXiX",
"iXiXiXiXiXiXiXiXiXiXiXiXA.~.A.S.K.K.V.N.C.L.F.F.D.>.*.O o iXiXiXiXiXiXiXiXiXiXiXiXiXiXiXiXiXiXiX",
"iXiXiXiXiXiXiXiXiXiXiXiXY.&X_.J.J.J.B.N.J.].(.W.R.:.a > O iXiXiXiXiXiXiXiXiXiXiXiXiXiXiXiXiXiXiX",
"iXiXiXiXiXiXiXiXiXiXiXiX~.*X*X_.S.5.6.J.*X[._.~.R.:.2.=.iXiXiXiXiXiXiXiXiXiXiXiXiXiXiXiXiXiXiXiX",
"iXiXiXiXiXiXiXiXiXiXiXiX'.{.wX[._.S.N.].wX{.]._.R.:.4.M.iXiXiXiXiXiXiXiXiXiXiXiXiXiXiXiXiXiXiXiX",
"iXiXiXiXiXiXiXiXiXiXiXiX'.{.{.{.=X/.H.[.wX{.`.~.R.=.,.B.iXiXiXiXiXiXiXiXiXiXiXiXiXiXiXiXiXiXiXiX",
"iXiXiXiXiXiXiXiXiXiXiXiX~.'.`.[.=XP.J.[.{.[.`.!.W.:.w *.a iXiXiXiXiXiXiXiXiXiXiXiXiXiXiXiXiXiXiX",
"iXiXiXiXiXiXiXiXiXiXiXiXW.Y.S.(.{./.V.'.P.L./.Y.W.+.7 < 7 iXiXiXiXiXiXiXiXiXiXiXiXiXiXiXiXiXiXiX",
"iXiXiXiXiXiXiXiXiXiXiX@.D.D.2.S.wX/.B.L.M.5.S.F.E.a @ X @ iXiXiXiXiXiXiXiXiXiXiXiXiXiXiXiXiXiXiX",
"iXiXiXiXiXiXiXiXiXiXiX@.A.z.2.H.=X(.;.2.-.3.4.D.A.9 O . X iXiXiXiXiXiXiXiXiXiXiXiXiXiXiXiXiXiXiX",
"iXiXiXiXiXiXiXiXiXiXiX>.Y.Y.T.'.eX*XJ.C.M.5.q.F.z.3 X . . iXiXiXiXiXiXiXiXiXiXiXiXiXiXiXiXiXiXiX",
"iXiXiXiXiXiXiXiXiXiX4 3.'.*X*XeXuXtX*X).K.K.J.U.3.< X X @ iXiXiXiXiXiXiXiXiXiXiXiXiXiXiXiXiXiXiX",
"iXiXiXiXiXiXiXiXiXiX4 ,._.=XrXtXuXyXrX*X).(.K.S.,.< @ 7 , iXiXiXiXiXiXiXiXiXiXiXiXiXiXiXiXiXiXiX",
"iXiXiXiXiXiXiXiXiXiXiX=.T.{.=XrXyXtXrX=X}.(.Z.M.*.1 < 7 iXiXiXiXiXiXiXiXiXiXiXiXiXiXiXiXiXiXiXiX",
"iXiXiXiXiXiXiXiXiXiXiXq A.`.{.rXwXwXwX{.).Z.Z.7.0 , < > iXiXiXiXiXiXiXiXiXiXiXiXiXiXiXiXiXiXiXiX",
"iXiXiXiXiXiXiXiXiXiXiX1 *.Z.).`.{.{.{.).).Z.;.e 8 8 , X iXiXiXiXiXiXiXiXiXiXiXiXiXiXiXiXiXiXiXiX",
"iXiXiXiXiXiXiXiXiXiXiXo 7 -.B.B.Z.Z.Z.Z.N.B.*.o.a 0 7 O iXiXiXiXiXiXiXiXiXiXiXiXiXiXiXiXiXiXiXiX",
"iXiXiXiXiXiXiXiXiXiXiXo o 9 r r r e *.*.*.e o.+.o.w 0 iXiXiXiXiXiXiXiXiXiXiXiXiXiXiXiXiXiXiXiXiX",
"iXiXiXiXiXiXiXiXiXiXiXiX. > > 1 > 1 , < 8 < o.o.q iXiXiXiXiXiXiXiXiXiXiXiXiXiXiXiXiXiXiXiXiXiXiX",
"iXiXiXiXiXiXiXiXiXiXiXiXiX. O 1 3 4 < 9 w 9 q 9 8 iXiXiXiXiXiXiXiXiXiXiXiXiXiXiXiXiXiXiXiXiXiXiX",
"iXiXiXiXiXiXiXiXiXiXiXiXiXo > 3 q @.o.+.=.q 9 > iXiXiXiXiXiXiXiXiXiXiXiXiXiXiXiXiXiXiXiXiXiXiXiX",
"iXiXiXiXiXiXiXiXiXiXiXiXiXiX1 4 o.+.+.:.iXiXiXiXiXiXiXiXiXiXiXiXiXiXiXiXiXiXiXiXiXiXiXiXiXiXiXiX",
"iXiXiXiXiXiXiXiXiXiXiXiXiXiXiXiXiXiXiXiXiXiXiXiXiXiXiXiXiXiXiXiXiXiXiXiXiXiXiXiXiXiXiXiXiXiXiXiX",
"iXiXiXiXiXiXiXiXiXiXiXiXiXiXiXiXiXiXiXiXiXiXiXiXiXiXiXiXiXiXiXiXiXiXiXiXiXiXiXiXiXiXiXiXiXiXiXiX",
"iXiXiXiXiXiXiXiXiXiXiXiXiXiXiXiXiXiXiXiXiXiXiXiXiXiXiXiXiXiXiXiXiXiXiXiXiXiXiXiXiXiXiXiXiXiXiXiX"
};
