/* XPM */
static char *result[] = {
/* columns rows colors chars-per-pixel */
"48 48 219 2 ",
"   c #010505",
".  c #1C0C0C",
"X  c #041D1B",
"o  c #0B1412",
"O  c #1D1314",
"+  c #161A18",
"@  c #111010",
"#  c #241313",
"$  c #24191B",
"%  c #2B1B1C",
"&  c #291617",
"*  c #311E1F",
"=  c #210F10",
"-  c #08251E",
";  c #14241D",
":  c #2E1E20",
">  c #351F20",
",  c #082825",
"<  c #07342F",
"1  c #073A33",
"2  c #083B35",
"3  c #083935",
"4  c #1A3A34",
"5  c #192820",
"6  c #2C2223",
"7  c #2A2326",
"8  c #332323",
"9  c #332629",
"0  c #34292C",
"q  c #3B2B2C",
"w  c #3A2627",
"e  c #392D31",
"r  c #3B3734",
"t  c #273A31",
"y  c #442D2E",
"u  c #443334",
"i  c #4C3535",
"p  c #4D3B3C",
"a  c #46383A",
"s  c #543E3E",
"d  c #563B3A",
"f  c #0B433B",
"g  c #074137",
"h  c #1A443D",
"j  c #16493F",
"k  c #28473D",
"l  c #3B4036",
"z  c #4E3F41",
"x  c #0C4742",
"c  c #0B4B43",
"v  c #0E4F48",
"b  c #134B43",
"n  c #1A4B44",
"m  c #194C47",
"M  c #0C544B",
"N  c #14544C",
"B  c #19554E",
"V  c #0E5A52",
"C  c #0E5752",
"Z  c #115D55",
"A  c #1C5A52",
"S  c #155B57",
"D  c #234C44",
"F  c #294E47",
"G  c #354E4A",
"H  c #29574D",
"J  c #36554A",
"K  c #215B53",
"L  c #2E5856",
"P  c #3A5A54",
"I  c #12645C",
"U  c #1B625B",
"Y  c #12685F",
"T  c #23615B",
"R  c #2B655C",
"E  c #35635A",
"W  c #1D6562",
"Q  c #146C64",
"!  c #196D67",
"~  c #167067",
"^  c #167169",
"/  c #19746C",
"(  c #19796F",
")  c #1D7970",
"_  c #2C6C65",
"`  c #386C65",
"'  c #22746C",
"]  c #2C7669",
"[  c #36756C",
"{  c #377569",
"}  c #2A7A72",
"|  c #357A73",
" . c #3B7C75",
".. c #3E7773",
"X. c #454E45",
"o. c #534345",
"O. c #5C4646",
"+. c #5C4B4B",
"@. c #594848",
"#. c #46594E",
"$. c #58554E",
"%. c #5F4F50",
"&. c #475C58",
"*. c #585B55",
"=. c #634D4D",
"-. c #694C4B",
";. c #684645",
":. c #744C4A",
">. c #655152",
",. c #6C5556",
"<. c #67585A",
"1. c #725452",
"2. c #745A5A",
"3. c #7A5C5B",
"4. c #7A5755",
"5. c #6E514F",
"6. c #446348",
"7. c #48655B",
"8. c #52655B",
"9. c #6C635C",
"0. c #735F61",
"q. c #446C65",
"w. c #4A6D66",
"e. c #4E6660",
"r. c #546C65",
"t. c #5C6D64",
"y. c #45776C",
"u. c #54746C",
"i. c #5C736B",
"p. c #53756B",
"a. c #457A74",
"s. c #4D7873",
"d. c #447974",
"f. c #517B75",
"g. c #577B75",
"h. c #656C63",
"j. c #7C6362",
"k. c #7A6C6A",
"l. c #75736B",
"z. c #647B74",
"x. c #647C76",
"c. c #747F76",
"v. c #845E5C",
"b. c #8C5E5A",
"n. c #845855",
"m. c #945E5D",
"M. c #8A625E",
"N. c #86625F",
"B. c #94635E",
"V. c #856362",
"C. c #8C6563",
"Z. c #846B6B",
"A. c #8A6D6C",
"S. c #876B66",
"D. c #9C6562",
"F. c #9C6A65",
"G. c #936E6C",
"H. c #9B6E6A",
"J. c #946864",
"K. c #97706D",
"L. c #8C7273",
"P. c #927675",
"I. c #9B7674",
"U. c #9C7B77",
"Y. c #A06F69",
"T. c #A16C65",
"R. c #A3726C",
"E. c #AB746D",
"W. c #AA7771",
"Q. c #A57A75",
"!. c #AD7972",
"~. c #A37C7A",
"^. c #A27771",
"/. c #B47C74",
"(. c #B97E76",
"). c #B0766E",
"_. c #48816E",
"`. c #48827A",
"'. c #5B8B71",
"]. c #5A837D",
"[. c #54817B",
"{. c #64837C",
"}. c #6C837C",
"|. c #60887F",
" X c #76877F",
".X c #6A9677",
"XX c #8D867C",
"oX c #AB827D",
"OX c #B6827A",
"+X c #BD847C",
"@X c #5D8682",
"#X c #5C8A85",
"$X c #588985",
"%X c #4C8881",
"&X c #648B86",
"*X c #6B8A85",
"=X c #658C88",
"-X c #6C8F8B",
";X c #738B85",
":X c #738E88",
">X c #798F8A",
",X c #63918C",
"<X c #7C928D",
"1X c #76918B",
"2X c #779691",
"3X c #849A94",
"4X c #8C9D96",
"5X c #959C94",
"6X c #88918A",
"7X c #BD8A82",
"8X c #B48780",
"9X c #97A39C",
"0X c #8EA09A",
"qX c #A3A098",
"wX c #A2A9A2",
"eX c #C18C84",
"rX c #C5948C",
"tX c #C79C93",
"yX c None",
/* pixels */
"yXyXyXyXyXyXyXyXyXyXyXyXyXyXyXyXyXyXyXyXyXyXyXyXyXyXyXyXyXyXyXyXyXyXyXyXyXyXyXyXyXyXyXyXyXyXyXyX",
"yXyXyXyXyXyXyXyXyXyXyXyXyXyXyXyXyXyXyXyXyXyXyXyXyXyX=.+.+.o.a yXyXyXyXyXyXyXyXyXyXyXyXyXyXyXyXyX",
"yXyXyXyXyXyXyXyXyXyXyXyXyXyXyXyXyXyXyXyXyXyXyXyXyX=.>.+.=.o.0 8 : yXyXyXyXyXyXyXyXyXyXyXyXyXyXyX",
"yXyXyXyXyXyXyXyXyXyXyXyXyXyXyXyXyXyXyXyXyXq 8 u a =.p q u r 0 % . yXyXyXyXyXyXyXyXyXyXyXyXyXyXyX",
"yXyXyXyXyXyXyXyXyXyXyXyXyXyXyXyXyXyXyXyXyXu o.@.9 9 8 & 8 % 0 6 $ # yXyXyXyXyXyXyXyXyXyXyXyXyXyX",
"yXyXyXyXyXyXyXyXyXyXyXyXyXyXyXyXyXyXyXs s s +.@.y i y y q : : q q O yXyXyXyXyXyXyXyXyXyXyXyXyXyX",
"yXyXyXyXyXyXyXyXyXyXyXyXyXyXyXyXyXyX% y p @.+.i :.n.n.n.n.:.-.;.s % O yXyXyXyXyXyXyXyXyXyXyXyXyX",
"yXyXyXyXyXyXyXyXyXyXyXyXyXyXyXyXyXyX# 8 i q i :.B.E.)./.)./.E.T.b.i $ yXyXyXyXyXyXyXyXyXyXyXyXyX",
"yXyXyXyXyXyXyXyXyXyXyXyXyXyXyXyXyXyX# q * y ;.b.B.)./.+X+XeX+X(./.4.9 yXyXyXyXyXyXyXyXyXyXyXyXyX",
"yXyXyXyXyXyXyXyXyXyXyXyXyXyXyXyXyXyXy y 8 s 4.B.T.E.(.eXrXrXeX+X(.I.z yXyXyXyXyXyXyXyXyXyXyXyXyX",
"yXyXyXyXyXyXyXyXyXyXyXyXyXyXyXyXyXw i * q -.C.D.T.E.+XrXtXtXrXeX8XQ.>.0 yXyXyXyXyXyXyXyXyXyXyXyX",
"yXyXyXyXyXyXyXyXyXyXyXyXyXyXyXyXyX8 % . 8 ,.P.H.E.E./.eXtXtXrXeX8X/.<.9 yXyXyXyXyXyXyXyXyXyXyXyX",
"yXyXyXyXyXyXyXyXyXyXyXyXyXyXyXyXyX# = & 8 j.L.V.M.M.M.W.7XrX+XQ.Q.U.>.yXyXyXyXyXyXyXyXyXyXyXyXyX",
"yXyXyXyXyXyXyXyXyXyXyXyXyXyXyXyXyX# # & 9 Z.Z.>.-.-.O.;.E.eXM.-.3.j.@.yXyXyXyXyXyXyXyXyXyXyXyXyX",
"yXyXyXyXyXyXyXyXyXyXyXyXyXyXyXyXyX% = & u L.S.N.2.1.J.:.Y.+Xn.-.S.A.a yXyXyXyXyXyXyXyXyXyXyXyXyX",
"yXyXyXyXyXyXyXyXyXyXyXyXyXyXyXyXyX8 & * o.P.G.F.M.M.oXM.F.+XY.1.Z.L.yXyXyXyXyXyXyXyXyXyXyXyXyXyX",
"yXyXyXyXyXyXyXyXyXyXyXyXyXyXyXyXyXi d i =.L.I./.).(./.m.T.+X).W.!.U.yXyXyXyXyXyXyXyXyXyXyXyXyXyX",
"yXyXyXyXyXyXyXyXyXyXyXyXyXyXyXyXyXyXn.O.+.L.I.!.(.eX/.J.Y.eX(.+XOX~.yXyXyXyXyXyXyXyXyXyXyXyXyXyX",
"yXyXyXyXyXyXyXyXyXyXyXyXyXyXyXyXyXyXC.3.O.L.~.R.(.eX/.C.J.8XOX7X(.~.yXyXyXyXyXyXyXyXyXyXyXyXyXyX",
"yXyXyXyXyXyXyXyXyXyXyXyXyXyXyXyXyXyX1.j.O.L.U.W.(.eXH.:.-.C.W.eXOXU.yXyXyXyXyXyXyXyXyXyXyXyXyXyX",
"yXyXyXyXyXyXyXyXyXyXyXyXyXyXyXyXyXyX> O.=.L.U.Q./.R.b.4.C.C.H.OXOXL.yXyXyXyXyXyXyXyXyXyXyXyXyXyX",
"yXyXyXyXyXyXyXyXyXyXyXyXyXyXyXyXyX& . s >.L.A.K.^.5.n.m.Y.H.v.V.oXV.yXyXyXyXyXyXyXyXyXyXyXyXyXyX",
"yXyXyXyXyXyXyXyXyXyXyXyXyXyXyXyXyX7 O =.=.k.j.3.H.J.b.m.D.D.H.2.L.yXyXyXyXyXyXyXyXyXyXyXyXyXyXyX",
"yXyXyXyXyXyXyXyXyXyXyXyXyXyXyXyXyXyXyX,.>.<.0.,.J.R.Y.C.M.K./.A.,.yXyXyXyXyXyXyXyXyXyXyXyXyXyXyX",
"yXyXyXyXyXyXyXyXyXyXyXyXyXyXyXyXyXyX4 *.,.+.<.2.2.C.R.F.v.I.oXj.%.yXyXyXyXyXyXyXyXyXyXyXyXyXyXyX",
"yXyXyXyXyXyXyXyXyXyXyXyXyXyXyXyXyXyXh L <.z z %.o.%.M.C.H.H.A.<.yXyXyXyXyXyXyXyXyXyXyXyXyXyXyXyX",
"yXyXyXyXyXyXyXyXyXyXyXyXyXyXyXyXyXD m U P o.y e e a z =.4.2.%.yXyXyXyXyXyXyXyXyXyXyXyXyXyXyXyXyX",
"yXyXyXyXyXyXyXyXyXyXyXyXyXyXyXyXD B m m W &.o.w e 9 0 e z %.yXyXyXyXyXyXyXyXyXyXyXyXyXyXyXyXyXyX",
"yXyXyXyXyXyXyXyXyXyXyXyXyXyXk n m m S m W W &.a i i q 0 +.Z.yXyXyXyXyXyXyXyXyXyXyXyXyXyXyXyXyXyX",
"yXyXyXyXyXyXyXyXyXyXyXyXJ H b b L ` s._ C Q S G @.2.-.5.L.U.7 yXyXyXyXyXyXyXyXyXyXyXyXyXyXyXyXyX",
"yXyXyXyXyXyXyXyXyXyXh.8.p.7.P w.z.;X2Xd.Q Q ! C 7.l.Z.P.8XS.o yXyXyXyXyXyXyXyXyXyXyXyXyXyXyXyXyX",
"yXyXyXyXyXyXyXP D F  X Xg.p.f.<X>X>X*Xs.Z Q ^ Q M W u.l.k.+.< yXyXyXyXyXyXyXyXyXyXyXyXyXyXyXyXyX",
"yXyXyXyXyXyXJ k j c u.}.g.:X` @Xp.g.*XR Z Y / ^ I Z /  .[ T K B B yXyXyXyXyXyXyXyXyXyXyXyXyXyXyX",
"yXyXyXyXo , 1 1 1 f N q.x.<X[.{ R T R I I I Q / ~ Z ' =X@X].f.s.K H yXyXyXyXyXyXyXyXyXyXyXyXyXyX",
"yXyXyXyX- f M M c x c V y.:X3X( _.~ Y Q Y I Y Q / Q ! %X&X&X].|.E G G yXyXyXyXyXyXyXyXyXyXyXyXyX",
"yXyXyXo 1 M M M C I V c I [.2X~ _.{ / / ! Y I Y Q ! Q / Q I Z A m 2 F J #.yXyXyXyXyXyXyXyXyXyXyX",
"yXyXyX- c M M M M I ~ C b W [ ~ [ '.Q d.{.f.` ` s.].d.Q Q Z f b b g 2 f 6.c.yXyXyXyXyXyXyXyXyXyX",
"yXyX+ k 8.t.z.N M Q ~ Q 2 M / / ( .X~ ].4X3X;X6X4X4X].Q ~ ~ c &.r.r.P h 6.z.h yXyXyXyXyXyXyXyXyX",
"yXyX; $.XX5XwXB M Q ^ Q Z , ! ! y.'.Q / @X*X3X4X4X:X ./ ~ ^ V p.1X3Xz.e.7.w.f yXyXyXyXyXyXyXyXyX",
"yXyX5 0.XXqXqXv M Q ^ Q ~ < x ] .Xa.Q ! d.a.a.`.s.s.d.} ~ ~ Y A p.z.z.z.}.K H k yXyXyXyXyXyXyXyX",
"yXyX; @.l.6X4Xv M Q ^ Q Q M - ` '.^ Q / $X#X=X-X&X*X=X$X' ~ Y V q.}.}.z.}.K H H yXyXyXyXyXyXyXyX",
"yXyX- X.h.XX}.v M I ^ Q Q V - n ^ ~ ~ ^  .$X,X$X=X=X2X-X| Q Y I ` :X<X4X}.w.M A yXyXyXyXyXyXyXyX",
"yXyX- X.8.7.P K C Q ^ Q Q Z < X ^ Q ^ ! ^ `.#X%X=X`.].@X`.Q Q Y U {.}. X}.}.V c F yXyXyXyXyXyXyX",
"yXyXt k #.8.w.7.M I ^ Q Q V <   Z ~ ( ^ ^ | | ) } ' _ ..a.Q ~ Y I I U U w.7.M v n yXyXyXyXyXyXyX",
"yXyXl #.8.t.i.w.V Y Q Q Q I 2   x Q ( ( ~ Q ~ / ( ( ~ I Y Y Q Q I I M Z }.V M M yXyXyXyXyXyXyXyX",
"yXyXa 8.G r.i.E V Q Q ! Q I g o 3 Q ( ^ ~ ~ ! ~ ( ( ~ Y Y Q Q Q I V V V }.V v V yXyXyXyXyXyXyXyX",
"yXyXyXyXyXyXyXyXyXyXyXyXyXyXyXyXyXyXyXyXyXyXyXyXyXyXyXyXyXyXyXyXyXyXyXyXyXyXyXyXyXyXyXyXyXyXyXyX",
"yXyXyXyXyXyXyXyXyXyXyXyXyXyXyXyXyXyXyXyXyXyXyXyXyXyXyXyXyXyXyXyXyXyXyXyXyXyXyXyXyXyXyXyXyXyXyXyX"
};
