/* XPM */
static char *result[] = {
/* columns rows colors chars-per-pixel */
"48 48 219 2 ",
"   c #010505",
".  c #1C0C0C",
"X  c #041D1B",
"o  c #0B1412",
"O  c #1D1314",
"+  c #161A18",
"@  c #111010",
"#  c #241313",
"$  c #24191B",
"%  c #2B1B1C",
"&  c #291617",
"*  c #311E1F",
"=  c #210F10",
"-  c #08251E",
";  c #14241D",
":  c #2E1E20",
">  c #351F20",
",  c #082825",
"<  c #07342F",
"1  c #073A33",
"2  c #083B35",
"3  c #083935",
"4  c #1A3A34",
"5  c #192820",
"6  c #2C2223",
"7  c #2A2326",
"8  c #332323",
"9  c #332629",
"0  c #34292C",
"q  c #3B2B2C",
"w  c #3A2627",
"e  c #392D31",
"r  c #3B3734",
"t  c #273A31",
"y  c #442D2E",
"u  c #443334",
"i  c #4C3535",
"p  c #4D3B3C",
"a  c #46383A",
"s  c #543E3E",
"d  c #563B3A",
"f  c #0B433B",
"g  c #074137",
"h  c #1A443D",
"j  c #16493F",
"k  c #28473D",
"l  c #3B4036",
"z  c #4E3F41",
"x  c #0C4742",
"c  c #0B4B43",
"v  c #0E4F48",
"b  c #134B43",
"n  c #1A4B44",
"m  c #194C47",
"M  c #0C544B",
"N  c #14544C",
"B  c #19554E",
"V  c #0E5A52",
"C  c #0E5752",
"Z  c #115D55",
"A  c #1C5A52",
"S  c #155B57",
"D  c #234C44",
"F  c #294E47",
"G  c #354E4A",
"H  c #29574D",
"J  c #36554A",
"K  c #215B53",
"L  c #2E5856",
"P  c #3A5A54",
"I  c #12645C",
"U  c #1B625B",
"Y  c #12685F",
"T  c #23615B",
"R  c #2B655C",
"E  c #35635A",
"W  c #1D6562",
"Q  c #146C64",
"!  c #196D67",
"~  c #167067",
"^  c #167169",
"/  c #19746C",
"(  c #19796F",
")  c #1D7970",
"_  c #2C6C65",
"`  c #386C65",
"'  c #22746C",
"]  c #2C7669",
"[  c #36756C",
"{  c #377569",
"}  c #2A7A72",
"|  c #357A73",
" . c #3B7C75",
".. c #3E7773",
"X. c #454E45",
"o. c #534345",
"O. c #5C4646",
"+. c #5C4B4B",
"@. c #594848",
"#. c #46594E",
"$. c #58554E",
"%. c #5F4F50",
"&. c #475C58",
"*. c #585B55",
"=. c #634D4D",
"-. c #694C4B",
";. c #684645",
":. c #744C4A",
">. c #655152",
",. c #6C5556",
"<. c #67585A",
"1. c #725452",
"2. c #745A5A",
"3. c #7A5C5B",
"4. c #7A5755",
"5. c #6E514F",
"6. c #446348",
"7. c #48655B",
"8. c #52655B",
"9. c #6C635C",
"0. c #735F61",
"q. c #446C65",
"w. c #4A6D66",
"e. c #4E6660",
"r. c #546C65",
"t. c #5C6D64",
"y. c #45776C",
"u. c #54746C",
"i. c #5C736B",
"p. c #53756B",
"a. c #457A74",
"s. c #4D7873",
"d. c #447974",
"f. c #517B75",
"g. c #577B75",
"h. c #656C63",
"j. c #7C6362",
"k. c #7A6C6A",
"l. c #75736B",
"z. c #647B74",
"x. c #647C76",
"c. c #747F76",
"v. c #845E5C",
"b. c #8C5E5A",
"n. c #845855",
"m. c #945E5D",
"M. c #8A625E",
"N. c #86625F",
"B. c #94635E",
"V. c #856362",
"C. c #8C6563",
"Z. c #846B6B",
"A. c #8A6D6C",
"S. c #876B66",
"D. c #9C6562",
"F. c #9C6A65",
"G. c #936E6C",
"H. c #9B6E6A",
"J. c #946864",
"K. c #97706D",
"L. c #8C7273",
"P. c #927675",
"I. c #9B7674",
"U. c #9C7B77",
"Y. c #A06F69",
"T. c #A16C65",
"R. c #A3726C",
"E. c #AB746D",
"W. c #AA7771",
"Q. c #A57A75",
"!. c #AD7972",
"~. c #A37C7A",
"^. c #A27771",
"/. c #B47C74",
"(. c #B97E76",
"). c #B0766E",
"_. c #48816E",
"`. c #48827A",
"'. c #5B8B71",
"]. c #5A837D",
"[. c #54817B",
"{. c #64837C",
"}. c #6C837C",
"|. c #60887F",
" X c #76877F",
".X c #6A9677",
"XX c #8D867C",
"oX c #AB827D",
"OX c #B6827A",
"+X c #BD847C",
"@X c #5D8682",
"#X c #5C8A85",
"$X c #588985",
"%X c #4C8881",
"&X c #648B86",
"*X c #6B8A85",
"=X c #658C88",
"-X c #6C8F8B",
";X c #738B85",
":X c #738E88",
">X c #798F8A",
",X c #63918C",
"<X c #7C928D",
"1X c #76918B",
"2X c #779691",
"3X c #849A94",
"4X c #8C9D96",
"5X c #959C94",
"6X c #88918A",
"7X c #BD8A82",
"8X c #B48780",
"9X c #97A39C",
"0X c #8EA09A",
"qX c #A3A098",
"wX c #A2A9A2",
"eX c #C18C84",
"rX c #C5948C",
"tX c #C79C93",
"yX c None",
/* pixels */
"yXyXyXyXyXyXyXyXyXyXyXyXyXyXyXyXyXyXyXyXyXyXyXyXyXyXyXyXyXyXyXyXyXyXyXyXyXyXyXyXyXyXyXyXyXyXyXyX",
"yXyXyXyXyXyXyXyXyXyXyXyXyXyXyXu o.%.+.=.yXyXyXyXyXyXyXyXyXyXyXyXyXyXyXyXyXyXyXyXyXyXyXyXyXyXyXyX",
"yXyXyXyXyXyXyXyXyXyXyXyXyX% 9 q o.%.+.>.>.yXyXyXyXyXyXyXyXyXyXyXyXyXyXyXyXyXyXyXyXyXyXyXyXyXyXyX",
"yXyXyXyXyXyXyXyXyXyXyXyXyX. % 0 r u q p +.i u 8 y yXyXyXyXyXyXyXyXyXyXyXyXyXyXyXyXyXyXyXyXyXyXyX",
"yXyXyXyXyXyXyXyXyXyXyXyXO $ 6 q % 9 & : 9 9 @.z u yXyXyXyXyXyXyXyXyXyXyXyXyXyXyXyXyXyXyXyXyXyXyX",
"yXyXyXyXyXyXyXyXyXyXyXyXO q q % % q y y i y @.+.p s s yXyXyXyXyXyXyXyXyXyXyXyXyXyXyXyXyXyXyXyXyX",
"yXyXyXyXyXyXyXyXyXyXyXO % d ;.:.:.4.n.n.n.:.i @.+.i y * yXyXyXyXyXyXyXyXyXyXyXyXyXyXyXyXyXyXyXyX",
"yXyXyXyXyXyXyXyXyXyXyX$ i B.T.E././.(.).E.B.:.i r i > # yXyXyXyXyXyXyXyXyXyXyXyXyXyXyXyXyXyXyXyX",
"yXyXyXyXyXyXyXyXyXyXyX0 3./.(.+XeX+X+X/.E.D.b.;.q * q & yXyXyXyXyXyXyXyXyXyXyXyXyXyXyXyXyXyXyXyX",
"yXyXyXyXyXyXyXyXyXyXyXp H.OX+XeXrXrXeX(.E.F.D.4.d 8 y y yXyXyXyXyXyXyXyXyXyXyXyXyXyXyXyXyXyXyXyX",
"yXyXyXyXyXyXyXyXyXyX0 >.Q.+XeXrXtXtXrXOX).T.F.C.-.q * i w yXyXyXyXyXyXyXyXyXyXyXyXyXyXyXyXyXyXyX",
"yXyXyXyXyXyXyXyXyXyX9 ,.oX7XeXrXtXtXeX(.E.R.H.L.2.6 = & > yXyXyXyXyXyXyXyXyXyXyXyXyXyXyXyXyXyXyX",
"yXyXyXyXyXyXyXyXyXyXyX>.~.Q.Q.OXtX7XR.M.b.V.V.P.j.9 & = # yXyXyXyXyXyXyXyXyXyXyXyXyXyXyXyXyXyXyX",
"yXyXyXyXyXyXyXyXyXyXyXo.j.2.-.M.eXE.;.;.-.5.-.Z.S.9 & # # yXyXyXyXyXyXyXyXyXyXyXyXyXyXyXyXyXyXyX",
"yXyXyXyXyXyXyXyXyXyXyXz Z.A.-.n.7XF.:.J.1.2.v.Z.A.u & = % yXyXyXyXyXyXyXyXyXyXyXyXyXyXyXyXyXyXyX",
"yXyXyXyXyXyXyXyXyXyXyXyXL.S.1.T.+XF.b.oXb.V.H.G.P.o.> & 8 yXyXyXyXyXyXyXyXyXyXyXyXyXyXyXyXyXyXyX",
"yXyXyXyXyXyXyXyXyXyXyXyXI.Q.W.!.+XF.B./.(.!./.I.P.=.u d i yXyXyXyXyXyXyXyXyXyXyXyXyXyXyXyXyXyXyX",
"yXyXyXyXyXyXyXyXyXyXyXyX~.OX+X(.7XR.J.(.eX(.!.U.L.+.O.v.yXyXyXyXyXyXyXyXyXyXyXyXyXyXyXyXyXyXyXyX",
"yXyXyXyXyXyXyXyXyXyXyXyX~.(.+XOX8XJ.b./.eX(.W.~.A.=.3.C.yXyXyXyXyXyXyXyXyXyXyXyXyXyXyXyXyXyXyXyX",
"yXyXyXyXyXyXyXyXyXyXyXyXQ.OXeXW.J.-.:.H.7X/.W.U.L.z V.5.yXyXyXyXyXyXyXyXyXyXyXyXyXyXyXyXyXyXyXyX",
"yXyXyXyXyXyXyXyXyXyXyXyXL.OXOXH.C.C.4.b.^./.Q.I.L.=.O.8 yXyXyXyXyXyXyXyXyXyXyXyXyXyXyXyXyXyXyXyX",
"yXyXyXyXyXyXyXyXyXyXyXyXV.oXV.N.H.H.m.n.5.^.K.A.L.>.s . $ yXyXyXyXyXyXyXyXyXyXyXyXyXyXyXyXyXyXyX",
"yXyXyXyXyXyXyXyXyXyXyXyXyXA.2.H.T.D.m.b.J.J.3.j.k.-.-.O 7 yXyXyXyXyXyXyXyXyXyXyXyXyXyXyXyXyXyXyX",
"yXyXyXyXyXyXyXyXyXyXyXyXyX,.S.~.H.V.m.Y.W.J.<.0.<.>.,.yXyXyXyXyXyXyXyXyXyXyXyXyXyXyXyXyXyXyXyXyX",
"yXyXyXyXyXyXyXyXyXyXyXyXyX%.j.8X^.v.H.R.C.2.0.<.+.,.*.4 yXyXyXyXyXyXyXyXyXyXyXyXyXyXyXyXyXyXyXyX",
"yXyXyXyXyXyXyXyXyXyXyXyXyXyX<.A.G.H.C.V.>.z +.z s <.L h yXyXyXyXyXyXyXyXyXyXyXyXyXyXyXyXyXyXyXyX",
"yXyXyXyXyXyXyXyXyXyXyXyXyXyXyX>.2.4.;.z z 0 e y o.P S m D yXyXyXyXyXyXyXyXyXyXyXyXyXyXyXyXyXyXyX",
"yXyXyXyXyXyXyXyXyXyXyXyXyXyXyXyX%.z e 0 9 0 w O.&.W B m B n yXyXyXyXyXyXyXyXyXyXyXyXyXyXyXyXyXyX",
"yXyXyXyXyXyXyXyXyXyXyXyXyXyXyXyXZ.+.0 e a i r &.W W B S B m h k yXyXyXyXyXyXyXyXyXyXyXyXyXyXyXyX",
"yXyXyXyXyXyXyXyXyXyXyXyXyXyXyX: U.L.5.-.2.o.G I ! S T g.q.F x b J J yXyXyXyXyXyXyXyXyXyXyXyXyXyX",
"yXyXyXyXyXyXyXyXyXyXyXyXyXyXyXo Z.8XI.j.k.&.C ^ I I y.2X;Xg.w.E q.r.8.h.yXyXyXyXyXyXyXyXyXyXyXyX",
"yXyXyXyXyXyXyXyXyXyXyXyXyXyXyX< +.Z.l.u.W C Q / Q S s.:X>X<X<Xg.i.z. X}.F D P yXyXyXyXyXyXyXyXyX",
"yXyXyXyXyXyXyXyXyXyXyXyXyXA B K R [ ../ S Z / / I C _ &X{.p.{._ 1Xp. Xp.v b h G yXyXyXyXyXyXyXyX",
"yXyXyXyXyXyXyXyXyXyXyXyXG T s.s.].@X,X) C ^ / Q I I Z _ T R { [.1X{.q.N f 1 < 1 , + yXyXyXyXyXyX",
"yXyXyXyXyXyXyXyXyXyXyXG F E {.].&X#X%XW ~ ^ ~ Y Z Q Q Q Q _./ 4X:Xy.V c f c M M f - yXyXyXyXyXyX",
"yXyXyXyXyXyXyXyXyX#.J D g m K V I ~ ~ Q ~ Q Q Z Y ~ ^ ! | _.~ 2X[.Y f Z I V M M M 2 o yXyXyXyXyX",
"yXyXyXyXyXyXyXyXc.6.f 3 g b b f Z ~ Y ..g.s.` ` s.&Xd.Y '.] ! [ W c C ~ Y V M M M x , yXyXyXyXyX",
"yXyXyXyXyXyXyX4 z.6.h P t.r.7.c ~ ~ ~ $X0X4X6X:X3X4X@X! .X/ / / b f Q ^ Y M N z.t.8.t ; yXyXyXyX",
"yXyXyXyXyXyXyXf w.7.e.z.3X1Xu.V ^ ~ /  .:X4X4X3X;Xg.) ! '.d.~ Q , Z Q ~ Q M N wXqXXX$.; yXyXyXyX",
"yXyXyXyXyXyXD H K }.z.z.z.p.B Y ^ ^ } a.s.s.[.a.d...! ! _..X] x < ~ Q ^ Y M v 9XqXXX9.5 yXyXyXyX",
"yXyXyXyXyXyXH H K z.z.}.}.y.I I ~ / $X&X&X&X,X,X&X%X/ Q ~ '.` X v Q ~ ^ Y M c 4X6Xk.$.; yXyXyXyX",
"yXyXyXyXyXyXK M 7. X0X<X>XE I Y ~ | 2X2X=X&X#X,X$X .^ ~ ~ ~ n , Z Q Q ^ Y M M }.XXh.X.; yXyXyXyX",
"yXyXyXyXyXH c V {.}.;X{.{.U I Y ! a.@X].f.=X .,X`.( Q ( Q ~ X < Z Q Q ^ Y M H P 7.7.X.- yXyXyXyX",
"yXyXyXyXyXh c M w.w.U A Z I Y ~ ~ a.[ _ ' } )  .| ~ ^ ( ! Z   < V Q Q ~ Y V q.8.8.#.k t yXyXyXyX",
"yXyXyXyXyXyXV M V }.I V I I Y Q Q Y I Q ( ( / ~ Q ~ / ( ! c   2 I Q Q Q Y V w.i.t.*.#.l yXyXyXyX",
"yXyXyXyXyXyXV v V }.M Z Z I Q Q Q Y Y ! ( ( ~ ~ ~ ~ / ( Y 2 o g I Q Q Q Q V E i.r.J 8.r yXyXyXyX",
"yXyXyXyXyXyXyXyXyXyXyXyXyXyXyXyXyXyXyXyXyXyXyXyXyXyXyXyXyXyXyXyXyXyXyXyXyXyXyXyXyXyXyXyXyXyXyXyX",
"yXyXyXyXyXyXyXyXyXyXyXyXyXyXyXyXyXyXyXyXyXyXyXyXyXyXyXyXyXyXyXyXyXyXyXyXyXyXyXyXyXyXyXyXyXyXyXyX"
};
