/* XPM */
static char *result[] = {
/* columns rows colors chars-per-pixel */
"48 48 15 1 ",
"  c #259505",
". c #2B9706",
"X c #269A04",
"o c #2D9B06",
"O c #319D07",
"+ c #349D08",
"@ c #399D09",
"# c #2EA106",
"$ c #32A207",
"% c #33A807",
"& c #35A208",
"* c #3AA309",
"= c #36A808",
"- c #3BA909",
"; c #41AE0B",
/* pixels */
"O$$oOoO$oO=*##o+$$OO++++OO*&-$+O&O$&$oO@OOO+Xo.o",
"o.O+..O$$oO&$Xo$&*+$$ooOo+O*$o+O@$O&++OO+.@o O+@",
"O$Oo$o*.o..+$O+$+.***.#.O+&*$o++O@.O$oO$*o+$$O@O",
"&.&#**$*oO+O++$*oO.+o$o.&o$o+.&OO#$#+O$$*o.$&o*#",
"%&oO+*+o*&-OOO$&oO+++*O$#OOo*.O$$@XO.@o@@X#OoO=$",
"&*$*+$o.o+$$#oO.+.$**$$+$o$.&oO$#=oooO$Oo#.$##$&",
"o*$*o$**##o$.OX#O.$*$Oo+O.$OoO+%.*o$$OoO$OOOo#X&",
"&@o++o&*-O.+o&ooOOOO$$o++$+o&$O.O$.*O@O+oO#OO##%",
"O*O*&-$&+Oo*o+.#+oo+#. O*&$&&$Oo+.o*X@+o.O#o+o+O",
"o$o&OO*$%++*.@o$Ooo+$ .#*Oo+O+OO&O&+.-$+XOo$o&..",
"oO$O+.*&*O+$O-o+O*O.+.oO*+$OoO##$OO#X*#o.$+&.&$#",
"oOoO#oOOo*O$$$*+oO$X#OO+*$@*O#$o.O&&+OOOo$#@&&#O",
"$$Oo++X.@+.+O+;+O @#O+o&@.o@OoOO..o&@Oo$O.#$o&@+",
"$O*O$&#.$+o..o$O$#O.oo$@@$&&#$OO@oX.o$.$oOOO$=*&",
"O+*&$*$XoO+;oo$.@#OOOOO+$*$@.+O$=$OOOO.&XO*++&-o",
"+++.O+O$O&+*.%#+@Oo#$+X$#*O@@+o$&$$$#.#&XO#$&o& ",
"oOoooO+O+$$OOX.oOo#OOO.*oO#$++O$*O&o$$$oo+.Oo++o",
"OooOOOoo*-$O# XOX$o.O*o#.o+$$oo++$O..*$O+o.oOO+o",
"O.oo +O.O@+OOO.oOO#$O*#$oO$O#&o+$*o*=+.*oO.@$O#+",
"*OO#+$*$$+OO++X$=&.+oO*+o$$o O$++O*$++$*oO#OOO#*",
"$O=&O+$@O*o+&# o&++o.$+@.o$+$++O+.*.OoOo$$#$Oo@.",
"&%OO+O+o*$O$&OOo$.$X.%$&$.O$@+$O+++O+$++OoOOOo#o",
"OO$oO$$#O$o++$$-=.$O$OoO$#O$*$o#o&OO#OooO#OO@&&O",
"+O&&**+$&.$OO=#&&##+oO$oO#O-OOo$O#$O$= o+$#o@+*O",
"O+**@&$$O$$$$*$O&Xo++*oOo.*@O@+*$ @$.$o$&@.$++&+",
"O+O*+@oo.&#O.$OO-+o$$$&O..&O $O&$o$$oo+*++o+&+*o",
"+oO*&&+..oo#.Oo$&@oo-o@#O*oO.$o&.o&@ooo&+#o$+o-o",
"OOO&$oOo$.++$$+@$.XO@&+.#&$;-@+*++&-$o#.$#.O@+&+",
"o$#+oo$o@$XO+$.$oo++.O$OO+o&O*$O+O@@+&#.O&O&$*o&",
"$&o++.Oo&#oo+=@#%#@$&$Ooo oOo@o@$$o@@OOooo&&@&o#",
"ooO%$&Oo&+#o@++.$#$$O$OO*OO=$$$&+o&o&$O .o&+#+#$",
"ooOOo*oO$+oX.@@+o+o+.OO@o&$&OO$$$O$#**$o+.oo$Oo$",
"*Oo*XOO#OO.o.*&$.+..oO$$$oO$OO++.++o$O&.==#.O.$&",
"&O%-+.Oo#.o+$o-#o&O.OX&*&@+oo@++o$oOOX&$o$$o#$oO",
"O+O+O$O$OO#O++@OO-OOo$O#OO.++@++$$#$$.o+O##oo&O.",
"+$++O$#*#=$oO$+$$++o#*+++Oo@$**$*+oOO*#O$O$Oo@O&",
"..o@o$o*++O$o*OO*++$&*OO+o##$$oO*Ooo+OO#$@o&@.$@",
"$O$*O..O&O$+o#OooO#O&.Oo$O&.O..$*-o##ooo+OO+##$.",
"&+OO.## &o&.OO&OOo.OoOX&&.O+OO+$+-+$Oo&Oo&OO.O*o",
"*$OoO.OO+&&$.#$.&oO*$$O#*.OO$*oo+&#OO.O%%#O$ +-@",
"@.oo-oo#o+o$&+@X&oOO@O#-*@++&+o##@X.++o$#%$+o&&+",
"+&$+$+$Xo+o$oO+.OO+#+o.+o#$$#o$##o+o$*$.+@-$*#-o",
"o&o#.++#o$$@O$=@.$OX##$O+OO.o++.. +oo#$$oO-ooo*.",
"@oX$o.+.XX@oOo&$.+*o&$&#$#$&o+$$+#$++o.OO o$#$&$",
"*oo#$#. $+$+#+*&O$#o$o+o$@$ooOO-o$+.ooo%$##&o@-+",
"&ooooo$$oO+..+$@$$&O++#+*&o+.$#+ooo$$&&&o.o$.O++",
"o.*O+$&o+o.& &o+$+o+o&..oOo=oO+-O#o@&%.@O.o$oXo.",
"oo-$@OooOo$##o$..+$$&+.&.+ $@O.@.&.-$$o.o.o@+#$-"
};
